ZaghawaBeria-Regular.ufo
<glyph name="exclam" format="2">
  <advance width="388"/>
  <unicode hex="0021"/>
  <note>
exclam
</note>
  <outline>
    <contour>
      <point x="146" y="103" type="line"/>
      <point x="146" y="0" type="line"/>
      <point x="242" y="0" type="line"/>
      <point x="242" y="103" type="line"/>
    </contour>
    <contour>
      <point x="151" y="794" type="line"/>
      <point x="162" y="213" type="line"/>
      <point x="224" y="213" type="line"/>
      <point x="235" y="794" type="line"/>
    </contour>
  </outline>
</glyph>
<glyph name="quotedbl" format="2">
  <advance width="437"/>
  <unicode hex="0022"/>
  <note>
quotedbl
</note>
  <outline>
    <contour>
      <point x="96" y="864" type="line"/>
      <point x="114" y="571" type="line"/>
      <point x="166" y="571" type="line"/>
      <point x="184" y="864" type="line"/>
    </contour>
    <contour>
      <point x="253" y="864" type="line"/>
      <point x="271" y="571" type="line"/>
      <point x="323" y="571" type="line"/>
      <point x="341" y="864" type="line"/>
    </contour>
  </outline>
</glyph>
<glyph name="numbersign" format="2">
  <advance width="628"/>
  <unicode hex="0023"/>
  <note>
numbersign
</note>
  <outline>
    <contour>
      <point x="139" y="199" type="line"/>
      <point x="97" y="0" type="line"/>
      <point x="162" y="0" type="line"/>
      <point x="204" y="199" type="line"/>
      <point x="357" y="199" type="line"/>
      <point x="316" y="0" type="line"/>
      <point x="381" y="0" type="line"/>
      <point x="422" y="199" type="line"/>
      <point x="559" y="199" type="line"/>
      <point x="559" y="259" type="line"/>
      <point x="434" y="259" type="line"/>
      <point x="463" y="404" type="line"/>
      <point x="559" y="404" type="line"/>
      <point x="559" y="464" type="line"/>
      <point x="476" y="464" type="line"/>
      <point x="520" y="683" type="line"/>
      <point x="455" y="683" type="line"/>
      <point x="411" y="464" type="line"/>
      <point x="258" y="464" type="line"/>
      <point x="302" y="683" type="line"/>
      <point x="237" y="683" type="line"/>
      <point x="193" y="464" type="line"/>
      <point x="68" y="464" type="line"/>
      <point x="68" y="404" type="line"/>
      <point x="182" y="404" type="line"/>
      <point x="151" y="259" type="line"/>
      <point x="68" y="259" type="line"/>
      <point x="68" y="199" type="line"/>
    </contour>
    <contour>
      <point x="369" y="258" type="line"/>
      <point x="215" y="258" type="line"/>
      <point x="247" y="405" type="line"/>
      <point x="399" y="405" type="line"/>
    </contour>
  </outline>
</glyph>
<glyph name="dollar" format="2">
  <advance width="525"/>
  <unicode hex="0024"/>
  <note>
dollar
</note>
  <outline>
    <contour>
      <point x="231" y="3" type="line"/>
      <point x="231" y="-123" type="line"/>
      <point x="294" y="-123" type="line"/>
      <point x="294" y="3" type="line"/>
      <point x="407" y="6"/>
      <point x="481" y="69"/>
      <point x="481" y="179" type="curve" smooth="yes"/>
      <point x="481" y="301"/>
      <point x="394" y="348"/>
      <point x="294" y="362" type="curve"/>
      <point x="294" y="597" type="line"/>
      <point x="421" y="597" type="line"/>
      <point x="421" y="657" type="line"/>
      <point x="294" y="657" type="line"/>
      <point x="294" y="766" type="line"/>
      <point x="231" y="766" type="line"/>
      <point x="231" y="656" type="line"/>
      <point x="127" y="648"/>
      <point x="60" y="589"/>
      <point x="60" y="488" type="curve" smooth="yes"/>
      <point x="60" y="374"/>
      <point x="136" y="324"/>
      <point x="231" y="308" type="curve"/>
      <point x="231" y="63" type="line"/>
      <point x="89" y="63" type="line"/>
      <point x="89" y="3" type="line"/>
    </contour>
    <contour>
      <point x="417" y="179" type="curve" smooth="yes"/>
      <point x="417" y="110"/>
      <point x="376" y="64"/>
      <point x="294" y="63" type="curve"/>
      <point x="294" y="300" type="line"/>
      <point x="378" y="287"/>
      <point x="417" y="248"/>
    </contour>
    <contour>
      <point x="124" y="488" type="curve" smooth="yes"/>
      <point x="124" y="553"/>
      <point x="158" y="591"/>
      <point x="231" y="596" type="curve"/>
      <point x="231" y="372" type="line"/>
      <point x="165" y="388"/>
      <point x="124" y="421"/>
    </contour>
  </outline>
</glyph>
<glyph name="percent" format="2">
  <advance width="868"/>
  <unicode hex="0025"/>
  <note>
percent
</note>
  <outline>
    <contour>
      <point x="133" y="9" type="line"/>
      <point x="184" y="-30" type="line"/>
      <point x="714" y="689" type="line"/>
      <point x="663" y="728" type="line"/>
    </contour>
    <contour>
      <point x="210" y="418" type="curve" smooth="yes"/>
      <point x="156" y="418"/>
      <point x="115" y="475"/>
      <point x="115" y="547" type="curve" smooth="yes"/>
      <point x="115" y="619"/>
      <point x="156" y="676"/>
      <point x="210" y="676" type="curve" smooth="yes"/>
      <point x="264" y="676"/>
      <point x="305" y="619"/>
      <point x="305" y="547" type="curve" smooth="yes"/>
      <point x="305" y="475"/>
      <point x="264" y="418"/>
    </contour>
    <contour>
      <point x="210" y="359" type="curve" smooth="yes"/>
      <point x="302" y="359"/>
      <point x="371" y="441"/>
      <point x="371" y="547" type="curve" smooth="yes"/>
      <point x="371" y="653"/>
      <point x="302" y="735"/>
      <point x="210" y="735" type="curve" smooth="yes"/>
      <point x="118" y="735"/>
      <point x="49" y="653"/>
      <point x="49" y="547" type="curve" smooth="yes"/>
      <point x="49" y="441"/>
      <point x="118" y="359"/>
    </contour>
    <contour>
      <point x="658" y="44" type="curve" smooth="yes"/>
      <point x="604" y="44"/>
      <point x="563" y="101"/>
      <point x="563" y="173" type="curve" smooth="yes"/>
      <point x="563" y="245"/>
      <point x="604" y="302"/>
      <point x="658" y="302" type="curve" smooth="yes"/>
      <point x="712" y="302"/>
      <point x="753" y="245"/>
      <point x="753" y="173" type="curve" smooth="yes"/>
      <point x="753" y="101"/>
      <point x="712" y="44"/>
    </contour>
    <contour>
      <point x="658" y="-15" type="curve" smooth="yes"/>
      <point x="750" y="-15"/>
      <point x="819" y="67"/>
      <point x="819" y="173" type="curve" smooth="yes"/>
      <point x="819" y="279"/>
      <point x="750" y="361"/>
      <point x="658" y="361" type="curve" smooth="yes"/>
      <point x="566" y="361"/>
      <point x="497" y="279"/>
      <point x="497" y="173" type="curve" smooth="yes"/>
      <point x="497" y="67"/>
      <point x="566" y="-15"/>
    </contour>
  </outline>
</glyph>
<glyph name="ampersand" format="2">
  <advance width="742"/>
  <unicode hex="0026"/>
  <note>
ampersand
</note>
  <outline>
    <contour>
      <point x="445" y="335" type="line"/>
      <point x="445" y="275" type="line"/>
      <point x="548" y="275" type="line"/>
      <point x="548" y="214" type="line" smooth="yes"/>
      <point x="548" y="111"/>
      <point x="484" y="47"/>
      <point x="343" y="47" type="curve" smooth="yes"/>
      <point x="216" y="47"/>
      <point x="138" y="111"/>
      <point x="138" y="214" type="curve" smooth="yes"/>
      <point x="138" y="317"/>
      <point x="217" y="383"/>
      <point x="341" y="383" type="curve"/>
      <point x="341" y="443" type="line"/>
      <point x="235" y="609" type="line"/>
      <point x="479" y="609" type="line"/>
      <point x="479" y="668" type="line"/>
      <point x="160" y="668" type="line"/>
      <point x="160" y="611" type="line"/>
      <point x="273" y="437" type="line"/>
      <point x="149" y="411"/>
      <point x="71" y="328"/>
      <point x="71" y="214" type="curve" smooth="yes"/>
      <point x="71" y="80"/>
      <point x="176" y="-15"/>
      <point x="343" y="-15" type="curve" smooth="yes"/>
      <point x="524" y="-15"/>
      <point x="614" y="80"/>
      <point x="614" y="214" type="curve" smooth="yes"/>
      <point x="614" y="275" type="line"/>
      <point x="719" y="275" type="line"/>
      <point x="719" y="335" type="line"/>
    </contour>
  </outline>
</glyph>
<glyph name="quotesingle" format="2">
  <advance width="284"/>
  <unicode hex="0027"/>
  <note>
quotesingle
</note>
  <outline>
    <contour>
      <point x="96" y="864" type="line"/>
      <point x="116" y="571" type="line"/>
      <point x="168" y="571" type="line"/>
      <point x="188" y="864" type="line"/>
    </contour>
  </outline>
</glyph>
<glyph name="parenleft" format="2">
  <advance width="478"/>
  <unicode hex="0028"/>
  <note>
parenleft
</note>
  <outline>
    <contour>
      <point x="346" y="-181" type="curve"/>
      <point x="401" y="-141" type="line"/>
      <point x="283" y="8"/>
      <point x="224" y="167"/>
      <point x="224" y="334" type="curve" smooth="yes"/>
      <point x="224" y="493"/>
      <point x="296" y="686"/>
      <point x="398" y="806" type="curve"/>
      <point x="345" y="847" type="line"/>
      <point x="233" y="715"/>
      <point x="154" y="505"/>
      <point x="154" y="334" type="curve" smooth="yes"/>
      <point x="154" y="153"/>
      <point x="218" y="-19"/>
    </contour>
  </outline>
</glyph>
<glyph name="parenright" format="2">
  <advance width="478"/>
  <unicode hex="0029"/>
  <note>
parenright
</note>
  <outline>
    <contour>
      <point x="80" y="-140" type="curve"/>
      <point x="133" y="-181" type="line"/>
      <point x="245" y="-49"/>
      <point x="324" y="161"/>
      <point x="324" y="332" type="curve" smooth="yes"/>
      <point x="324" y="513"/>
      <point x="260" y="685"/>
      <point x="132" y="847" type="curve"/>
      <point x="77" y="807" type="line"/>
      <point x="195" y="658"/>
      <point x="254" y="499"/>
      <point x="254" y="332" type="curve" smooth="yes"/>
      <point x="254" y="173"/>
      <point x="182" y="-20"/>
    </contour>
  </outline>
</glyph>
<glyph name="asterisk" format="2">
  <advance width="444"/>
  <unicode hex="002A"/>
  <note>
asterisk
</note>
  <outline>
    <contour>
      <point x="75" y="508" type="line"/>
      <point x="124" y="472" type="line"/>
      <point x="222" y="606" type="line"/>
      <point x="320" y="472" type="line"/>
      <point x="369" y="508" type="line"/>
      <point x="272" y="641" type="line"/>
      <point x="428" y="691" type="line"/>
      <point x="409" y="750" type="line"/>
      <point x="253" y="700" type="line"/>
      <point x="253" y="864" type="line"/>
      <point x="191" y="864" type="line"/>
      <point x="191" y="700" type="line"/>
      <point x="35" y="750" type="line"/>
      <point x="16" y="691" type="line"/>
      <point x="172" y="641" type="line"/>
    </contour>
  </outline>
</glyph>
<glyph name="plus" format="2">
  <advance width="608"/>
  <unicode hex="002B"/>
  <note>
plus
</note>
  <outline>
    <contour>
      <point x="73" y="248" type="line"/>
      <point x="271" y="248" type="line"/>
      <point x="271" y="40" type="line"/>
      <point x="337" y="40" type="line"/>
      <point x="337" y="248" type="line"/>
      <point x="535" y="248" type="line"/>
      <point x="535" y="312" type="line"/>
      <point x="337" y="312" type="line"/>
      <point x="337" y="516" type="line"/>
      <point x="271" y="516" type="line"/>
      <point x="271" y="312" type="line"/>
      <point x="73" y="312" type="line"/>
    </contour>
  </outline>
</glyph>
<glyph name="comma" format="2">
  <advance width="265"/>
  <unicode hex="002C"/>
  <note>
comma
</note>
  <outline>
    <contour>
      <point x="88" y="104" type="line"/>
      <point x="88" y="0" type="line"/>
      <point x="122" y="0" type="line"/>
      <point x="78" y="-129" type="line"/>
      <point x="116" y="-142" type="line"/>
      <point x="184" y="8" type="line"/>
      <point x="184" y="104" type="line"/>
    </contour>
  </outline>
</glyph>
<glyph name="hyphen" format="2">
  <advance width="503"/>
  <unicode hex="002D"/>
  <note>
hyphen
</note>
  <outline>
    <contour>
      <point x="73" y="248" type="line"/>
      <point x="430" y="248" type="line"/>
      <point x="430" y="312" type="line"/>
      <point x="73" y="312" type="line"/>
    </contour>
  </outline>
</glyph>
<glyph name="slash" format="2">
  <advance width="711"/>
  <unicode hex="002F"/>
  <note>
slash
</note>
  <outline>
    <contour>
      <point x="17" y="-117" type="line"/>
      <point x="70" y="-159" type="line"/>
      <point x="694" y="689" type="line"/>
      <point x="641" y="731" type="line"/>
    </contour>
  </outline>
</glyph>
<glyph name="zero" format="2">
  <advance width="630"/>
  <unicode hex="0030"/>
  <note>
zero
</note>
  <outline>
    <contour>
      <point x="315" y="45" type="curve" smooth="yes"/>
      <point x="205" y="45"/>
      <point x="143" y="161"/>
      <point x="143" y="334" type="curve" smooth="yes"/>
      <point x="143" y="507"/>
      <point x="205" y="623"/>
      <point x="315" y="623" type="curve" smooth="yes"/>
      <point x="425" y="623"/>
      <point x="487" y="507"/>
      <point x="487" y="334" type="curve" smooth="yes"/>
      <point x="487" y="161"/>
      <point x="425" y="45"/>
    </contour>
    <contour>
      <point x="314" y="-15" type="curve" smooth="yes"/>
      <point x="473" y="-15"/>
      <point x="554" y="139"/>
      <point x="554" y="334" type="curve" smooth="yes"/>
      <point x="554" y="549"/>
      <point x="476" y="683"/>
      <point x="317" y="683" type="curve" smooth="yes"/>
      <point x="158" y="683"/>
      <point x="76" y="529"/>
      <point x="76" y="334" type="curve" smooth="yes"/>
      <point x="76" y="115"/>
      <point x="155" y="-15"/>
    </contour>
  </outline>
</glyph>
<glyph name="one" format="2">
  <advance width="422"/>
  <unicode hex="0031"/>
  <note>
one
</note>
  <outline>
    <contour>
      <point x="208" y="588" type="line"/>
      <point x="208" y="0" type="line"/>
      <point x="272" y="0" type="line"/>
      <point x="272" y="668" type="line"/>
      <point x="216" y="668" type="line"/>
      <point x="54" y="576" type="line"/>
      <point x="86" y="521" type="line"/>
    </contour>
  </outline>
</glyph>
<glyph name="two" format="2">
  <advance width="531"/>
  <unicode hex="0032"/>
  <note>
two
</note>
  <outline>
    <contour>
      <point x="44" y="579" type="curve"/>
      <point x="89" y="537" type="line"/>
      <point x="129" y="578"/>
      <point x="184" y="624"/>
      <point x="271" y="624" type="curve" smooth="yes"/>
      <point x="327" y="624"/>
      <point x="390" y="591"/>
      <point x="390" y="501" type="curve" smooth="yes"/>
      <point x="390" y="354"/>
      <point x="168" y="165"/>
      <point x="56" y="56" type="curve"/>
      <point x="56" y="0" type="line"/>
      <point x="482" y="0" type="line"/>
      <point x="482" y="63" type="line"/>
      <point x="155" y="63" type="line"/>
      <point x="261" y="169"/>
      <point x="457" y="345"/>
      <point x="457" y="501" type="curve" smooth="yes"/>
      <point x="457" y="635"/>
      <point x="358" y="684"/>
      <point x="271" y="684" type="curve" smooth="yes"/>
      <point x="159" y="684"/>
      <point x="92" y="628"/>
    </contour>
  </outline>
</glyph>
<glyph name="three" format="2">
  <advance width="535"/>
  <unicode hex="0033"/>
  <note>
three
</note>
  <outline>
    <contour>
      <point x="249" y="-15" type="curve" smooth="yes"/>
      <point x="357" y="-15"/>
      <point x="468" y="44"/>
      <point x="468" y="182" type="curve" smooth="yes"/>
      <point x="468" y="279"/>
      <point x="420" y="333"/>
      <point x="344" y="359" type="curve"/>
      <point x="406" y="384"/>
      <point x="442" y="430"/>
      <point x="442" y="510" type="curve" smooth="yes"/>
      <point x="442" y="635"/>
      <point x="349" y="684"/>
      <point x="252" y="684" type="curve" smooth="yes"/>
      <point x="153" y="684"/>
      <point x="85" y="644"/>
      <point x="58" y="625" type="curve"/>
      <point x="90" y="571" type="line"/>
      <point x="109" y="585"/>
      <point x="171" y="625"/>
      <point x="247" y="625" type="curve" smooth="yes"/>
      <point x="314" y="625"/>
      <point x="378" y="595"/>
      <point x="378" y="508" type="curve" smooth="yes"/>
      <point x="378" y="414"/>
      <point x="300" y="388"/>
      <point x="188" y="381" type="curve"/>
      <point x="188" y="325" type="line"/>
      <point x="316" y="325"/>
      <point x="403" y="292"/>
      <point x="403" y="182" type="curve" smooth="yes"/>
      <point x="403" y="85"/>
      <point x="324" y="45"/>
      <point x="250" y="45" type="curve" smooth="yes"/>
      <point x="162" y="45"/>
      <point x="87" y="89"/>
      <point x="70" y="101" type="curve"/>
      <point x="39" y="44" type="line"/>
      <point x="72" y="23"/>
      <point x="150" y="-15"/>
    </contour>
  </outline>
</glyph>
<glyph name="four" format="2">
  <advance width="564"/>
  <unicode hex="0034"/>
  <note>
four
</note>
  <outline>
    <contour>
      <point x="346" y="188" type="line"/>
      <point x="346" y="0" type="line"/>
      <point x="410" y="0" type="line"/>
      <point x="410" y="188" type="line"/>
      <point x="520" y="188" type="line"/>
      <point x="520" y="247" type="line"/>
      <point x="410" y="247" type="line"/>
      <point x="410" y="683" type="line"/>
      <point x="350" y="683" type="line"/>
      <point x="39" y="243" type="line"/>
      <point x="39" y="188" type="line"/>
    </contour>
    <contour>
      <point x="346" y="247" type="line"/>
      <point x="114" y="247" type="line"/>
      <point x="346" y="574" type="line"/>
    </contour>
  </outline>
</glyph>
<glyph name="five" format="2">
  <advance width="534"/>
  <unicode hex="0035"/>
  <note>
five
</note>
  <outline>
    <contour>
      <point x="242" y="-15" type="curve" smooth="yes"/>
      <point x="373" y="-15"/>
      <point x="474" y="58"/>
      <point x="474" y="202" type="curve" smooth="yes"/>
      <point x="474" y="340"/>
      <point x="393" y="408"/>
      <point x="237" y="408" type="curve" smooth="yes"/>
      <point x="213" y="408"/>
      <point x="185" y="405"/>
      <point x="165" y="401" type="curve"/>
      <point x="165" y="608" type="line"/>
      <point x="431" y="608" type="line"/>
      <point x="431" y="668" type="line"/>
      <point x="101" y="668" type="line"/>
      <point x="101" y="366" type="line"/>
      <point x="136" y="339" type="line"/>
      <point x="172" y="346"/>
      <point x="201" y="351"/>
      <point x="224" y="351" type="curve" smooth="yes"/>
      <point x="350" y="351"/>
      <point x="409" y="305"/>
      <point x="409" y="201" type="curve" smooth="yes"/>
      <point x="409" y="100"/>
      <point x="345" y="45"/>
      <point x="250" y="45" type="curve" smooth="yes"/>
      <point x="169" y="45"/>
      <point x="110" y="71"/>
      <point x="94" y="81" type="curve"/>
      <point x="69" y="22" type="line"/>
      <point x="103" y="6"/>
      <point x="157" y="-15"/>
    </contour>
  </outline>
</glyph>
<glyph name="six" format="2">
  <advance width="582"/>
  <unicode hex="0036"/>
  <note>
six
</note>
  <outline>
    <contour>
      <point x="308" y="-15" type="curve" smooth="yes"/>
      <point x="443" y="-15"/>
      <point x="520" y="96"/>
      <point x="520" y="222" type="curve" smooth="yes"/>
      <point x="520" y="353"/>
      <point x="427" y="411"/>
      <point x="318" y="411" type="curve" smooth="yes"/>
      <point x="253" y="411"/>
      <point x="191" y="392"/>
      <point x="143" y="369" type="curve"/>
      <point x="152" y="519"/>
      <point x="213" y="622"/>
      <point x="371" y="622" type="curve" smooth="yes"/>
      <point x="407" y="622"/>
      <point x="439" y="619"/>
      <point x="453" y="618" type="curve"/>
      <point x="460" y="679" type="line"/>
      <point x="441" y="681"/>
      <point x="411" y="683"/>
      <point x="377" y="683" type="curve" smooth="yes"/>
      <point x="151" y="683"/>
      <point x="76" y="519"/>
      <point x="76" y="320" type="curve" smooth="yes"/>
      <point x="76" y="108"/>
      <point x="145" y="-15"/>
    </contour>
    <contour>
      <point x="305" y="353" type="curve" smooth="yes"/>
      <point x="380" y="353"/>
      <point x="455" y="325"/>
      <point x="455" y="220" type="curve" smooth="yes"/>
      <point x="455" y="119"/>
      <point x="403" y="43"/>
      <point x="311" y="43" type="curve" smooth="yes"/>
      <point x="192" y="43"/>
      <point x="145" y="147"/>
      <point x="142" y="309" type="curve"/>
      <point x="180" y="331"/>
      <point x="250" y="353"/>
    </contour>
  </outline>
</glyph>
<glyph name="seven" format="2">
  <advance width="477"/>
  <unicode hex="0037"/>
  <note>
seven
</note>
  <outline>
    <contour>
      <point x="366" y="607" type="line"/>
      <point x="122" y="12" type="line"/>
      <point x="182" y="-12" type="line"/>
      <point x="438" y="613" type="line"/>
      <point x="438" y="668" type="line"/>
      <point x="31" y="668" type="line"/>
      <point x="31" y="607" type="line"/>
    </contour>
  </outline>
</glyph>
<glyph name="eight" format="2">
  <advance width="565"/>
  <unicode hex="0038"/>
  <note>
eight
</note>
  <outline>
    <contour>
      <point x="285" y="-19" type="curve" smooth="yes"/>
      <point x="388" y="-19"/>
      <point x="508" y="37"/>
      <point x="507" y="165" type="curve" smooth="yes"/>
      <point x="506" y="274"/>
      <point x="425" y="323"/>
      <point x="341" y="363" type="curve"/>
      <point x="413" y="403"/>
      <point x="476" y="449"/>
      <point x="476" y="532" type="curve" smooth="yes"/>
      <point x="476" y="625"/>
      <point x="389" y="685"/>
      <point x="276" y="685" type="curve" smooth="yes"/>
      <point x="168" y="685"/>
      <point x="81" y="628"/>
      <point x="81" y="532" type="curve" smooth="yes"/>
      <point x="81" y="447"/>
      <point x="143" y="397"/>
      <point x="214" y="360" type="curve"/>
      <point x="130" y="315"/>
      <point x="61" y="263"/>
      <point x="58" y="166" type="curve" smooth="yes"/>
      <point x="54" y="45"/>
      <point x="163" y="-19"/>
    </contour>
    <contour>
      <point x="285" y="40" type="curve" smooth="yes"/>
      <point x="195" y="40"/>
      <point x="119" y="83"/>
      <point x="122" y="168" type="curve" smooth="yes"/>
      <point x="124" y="248"/>
      <point x="198" y="289"/>
      <point x="277" y="330" type="curve"/>
      <point x="361" y="292"/>
      <point x="440" y="256"/>
      <point x="442" y="168" type="curve" smooth="yes"/>
      <point x="444" y="77"/>
      <point x="362" y="40"/>
    </contour>
    <contour>
      <point x="412" y="528" type="curve" smooth="yes"/>
      <point x="412" y="465"/>
      <point x="347" y="427"/>
      <point x="278" y="392" type="curve"/>
      <point x="208" y="425"/>
      <point x="149" y="460"/>
      <point x="149" y="530" type="curve" smooth="yes"/>
      <point x="149" y="595"/>
      <point x="207" y="628"/>
      <point x="280" y="628" type="curve" smooth="yes"/>
      <point x="355" y="628"/>
      <point x="412" y="585"/>
    </contour>
  </outline>
</glyph>
<glyph name="nine" format="2">
  <advance width="582"/>
  <unicode hex="0039"/>
  <note>
nine
</note>
  <outline>
    <contour>
      <point x="200" y="-15" type="curve" smooth="yes"/>
      <point x="279" y="-15"/>
      <point x="341" y="3"/>
      <point x="387" y="37" type="curve" smooth="yes"/>
      <point x="471" y="98"/>
      <point x="506" y="208"/>
      <point x="506" y="335" type="curve" smooth="yes"/>
      <point x="506" y="566"/>
      <point x="435" y="684"/>
      <point x="266" y="684" type="curve" smooth="yes"/>
      <point x="137" y="684"/>
      <point x="62" y="577"/>
      <point x="62" y="456" type="curve" smooth="yes"/>
      <point x="62" y="315"/>
      <point x="157" y="258"/>
      <point x="272" y="258" type="curve" smooth="yes"/>
      <point x="325" y="258"/>
      <point x="389" y="272"/>
      <point x="439" y="292" type="curve"/>
      <point x="434" y="196"/>
      <point x="404" y="122"/>
      <point x="342" y="81" type="curve" smooth="yes"/>
      <point x="307" y="58"/>
      <point x="262" y="46"/>
      <point x="208" y="46" type="curve" smooth="yes"/>
      <point x="172" y="46"/>
      <point x="140" y="50"/>
      <point x="126" y="51" type="curve"/>
      <point x="119" y="-10" type="line"/>
      <point x="137" y="-12"/>
      <point x="167" y="-15"/>
    </contour>
    <contour>
      <point x="277" y="317" type="curve" smooth="yes"/>
      <point x="201" y="317"/>
      <point x="128" y="343"/>
      <point x="128" y="456" type="curve" smooth="yes"/>
      <point x="128" y="545"/>
      <point x="180" y="625"/>
      <point x="268" y="625" type="curve" smooth="yes"/>
      <point x="381" y="625"/>
      <point x="439" y="527"/>
      <point x="440" y="355" type="curve"/>
      <point x="401" y="335"/>
      <point x="331" y="317"/>
    </contour>
  </outline>
</glyph>
<glyph name="colon" format="2">
  <advance width="306"/>
  <unicode hex="003A"/>
  <note>
colon
</note>
  <outline>
    <contour>
      <point x="103" y="458" type="line"/>
      <point x="103" y="350" type="line"/>
      <point x="203" y="350" type="line"/>
      <point x="203" y="458" type="line"/>
    </contour>
    <contour>
      <point x="103" y="108" type="line"/>
      <point x="103" y="0" type="line"/>
      <point x="203" y="0" type="line"/>
      <point x="203" y="108" type="line"/>
    </contour>
  </outline>
</glyph>
<glyph name="semicolon" format="2">
  <advance width="308"/>
  <unicode hex="003B"/>
  <note>
semicolon
</note>
  <outline>
    <contour>
      <point x="105" y="108" type="line"/>
      <point x="105" y="0" type="line"/>
      <point x="141" y="0" type="line"/>
      <point x="103" y="-130" type="line"/>
      <point x="149" y="-144" type="line"/>
      <point x="205" y="8" type="line"/>
      <point x="205" y="108" type="line"/>
    </contour>
    <contour>
      <point x="105" y="458" type="line"/>
      <point x="105" y="350" type="line"/>
      <point x="205" y="350" type="line"/>
      <point x="205" y="458" type="line"/>
    </contour>
  </outline>
</glyph>
<glyph name="less" format="2">
  <advance width="646"/>
  <unicode hex="003C"/>
  <note>
less
</note>
  <outline>
    <contour>
      <point x="529" y="46" type="line"/>
      <point x="562" y="101" type="line"/>
      <point x="182" y="331" type="line"/>
      <point x="561" y="561" type="line"/>
      <point x="529" y="614" type="line"/>
      <point x="68" y="335" type="line"/>
      <point x="68" y="325" type="line"/>
    </contour>
  </outline>
</glyph>
<glyph name="equal" format="2">
  <advance width="606"/>
  <unicode hex="003D"/>
  <note>
equal
</note>
  <outline>
    <contour>
      <point x="77" y="174" type="line"/>
      <point x="529" y="174" type="line"/>
      <point x="529" y="236" type="line"/>
      <point x="77" y="236" type="line"/>
    </contour>
    <contour>
      <point x="77" y="341" type="line"/>
      <point x="529" y="341" type="line"/>
      <point x="529" y="403" type="line"/>
      <point x="77" y="403" type="line"/>
    </contour>
  </outline>
</glyph>
<glyph name="greater" format="2">
  <advance width="666"/>
  <unicode hex="003E"/>
  <note>
greater
</note>
  <outline>
    <contour>
      <point x="105" y="99" type="line"/>
      <point x="137" y="46" type="line"/>
      <point x="598" y="325" type="line"/>
      <point x="598" y="335" type="line"/>
      <point x="137" y="614" type="line"/>
      <point x="104" y="559" type="line"/>
      <point x="484" y="329" type="line"/>
    </contour>
  </outline>
</glyph>
<glyph name="question" format="2">
  <advance width="654"/>
  <unicode hex="003F"/>
  <note>
question
</note>
  <outline>
    <contour>
      <point x="241" y="423" type="line"/>
      <point x="241" y="213" type="line"/>
      <point x="307" y="213" type="line"/>
      <point x="307" y="359" type="line"/>
      <point x="465" y="362"/>
      <point x="595" y="434"/>
      <point x="595" y="581" type="curve" smooth="yes"/>
      <point x="595" y="721"/>
      <point x="476" y="809"/>
      <point x="316" y="809" type="curve" smooth="yes"/>
      <point x="222" y="809"/>
      <point x="134" y="783"/>
      <point x="57" y="726" type="curve"/>
      <point x="96" y="672" type="line"/>
      <point x="157" y="718"/>
      <point x="238" y="746"/>
      <point x="316" y="746" type="curve" smooth="yes"/>
      <point x="432" y="746"/>
      <point x="525" y="689"/>
      <point x="525" y="585" type="curve" smooth="yes"/>
      <point x="525" y="480"/>
      <point x="437" y="423"/>
      <point x="303" y="423" type="curve" smooth="yes"/>
    </contour>
    <contour>
      <point x="224" y="103" type="line"/>
      <point x="224" y="0" type="line"/>
      <point x="320" y="0" type="line"/>
      <point x="320" y="103" type="line"/>
    </contour>
  </outline>
</glyph>
<glyph name="at" format="2">
  <advance width="801"/>
  <unicode hex="0040"/>
  <note>
at
</note>
  <outline>
    <contour>
      <point x="474" y="-21" type="curve" smooth="yes"/>
      <point x="612" y="-21"/>
      <point x="718" y="132"/>
      <point x="718" y="434" type="curve" smooth="yes"/>
      <point x="718" y="688"/>
      <point x="595" y="793"/>
      <point x="430" y="793" type="curve" smooth="yes"/>
      <point x="201" y="793" type="line"/>
      <point x="201" y="734" type="line"/>
      <point x="430" y="734" type="line" smooth="yes"/>
      <point x="557" y="734"/>
      <point x="652" y="648"/>
      <point x="652" y="434" type="curve" smooth="yes"/>
      <point x="652" y="170"/>
      <point x="568" y="39"/>
      <point x="474" y="39" type="curve" smooth="yes"/>
      <point x="420" y="39"/>
      <point x="404" y="84"/>
      <point x="404" y="133" type="curve" smooth="yes"/>
      <point x="404" y="228"/>
      <point x="436" y="414"/>
      <point x="455" y="484" type="curve"/>
      <point x="547" y="484" type="line"/>
      <point x="547" y="541" type="line"/>
      <point x="329" y="541" type="line" smooth="yes"/>
      <point x="145" y="541"/>
      <point x="77" y="360"/>
      <point x="77" y="144" type="curve" smooth="yes"/>
      <point x="77" y="33"/>
      <point x="119" y="-16"/>
      <point x="194" y="-16" type="curve" smooth="yes"/>
      <point x="251" y="-16"/>
      <point x="319" y="22"/>
      <point x="355" y="51" type="curve"/>
      <point x="373" y="10"/>
      <point x="407" y="-21"/>
    </contour>
    <contour>
      <point x="199" y="41" type="curve" smooth="yes"/>
      <point x="164" y="41"/>
      <point x="143" y="73"/>
      <point x="143" y="144" type="curve" smooth="yes"/>
      <point x="143" y="329"/>
      <point x="191" y="484"/>
      <point x="325" y="484" type="curve" smooth="yes"/>
      <point x="392" y="484" type="line"/>
      <point x="371" y="401"/>
      <point x="340" y="226"/>
      <point x="340" y="133" type="curve" smooth="yes"/>
      <point x="340" y="126"/>
      <point x="340" y="118"/>
      <point x="341" y="111" type="curve"/>
      <point x="316" y="87"/>
      <point x="251" y="41"/>
    </contour>
  </outline>
</glyph>
<glyph name="Ay-beria" format="2">
  <advance width="785"/>
  <unicode hex="0041"/>
  <note>
A
</note>
  <anchor x="393" y="720" name="U"/>
  <outline>
    <contour>
      <point x="101" y="-106" type="line"/>
      <point x="153" y="-146" type="line"/>
      <point x="393" y="190" type="line"/>
      <point x="636" y="-146" type="line"/>
      <point x="690" y="-104" type="line"/>
      <point x="436" y="248" type="line"/>
      <point x="692" y="605" type="line"/>
      <point x="692" y="668" type="line"/>
      <point x="93" y="668" type="line"/>
      <point x="93" y="605" type="line"/>
      <point x="353" y="246" type="line"/>
    </contour>
    <contour>
      <point x="612" y="605" type="line"/>
      <point x="396" y="304" type="line"/>
      <point x="179" y="605" type="line"/>
    </contour>
  </outline>
</glyph>
<glyph name="Bay-beria" format="2">
  <advance width="831"/>
  <unicode hex="0042"/>
  <note>
B
</note>
  <outline>
    <contour>
      <point x="47" y="647" type="line"/>
      <point x="372" y="-136" type="line"/>
      <point x="459" y="-136" type="line"/>
      <point x="784" y="646" type="line"/>
      <point x="724" y="673" type="line"/>
      <point x="593" y="357" type="line"/>
      <point x="549" y="377"/>
      <point x="500" y="389"/>
      <point x="447" y="393" type="curve"/>
      <point x="447" y="674" type="line"/>
      <point x="381" y="674" type="line"/>
      <point x="381" y="393" type="line"/>
      <point x="333" y="389"/>
      <point x="285" y="377"/>
      <point x="240" y="358" type="curve"/>
      <point x="109" y="674" type="line"/>
    </contour>
    <contour>
      <point x="569" y="298" type="curve"/>
      <point x="417" y="-68" type="line"/>
      <point x="265" y="300" type="line"/>
      <point x="313" y="320"/>
      <point x="363" y="331"/>
      <point x="414" y="331" type="curve" smooth="yes"/>
      <point x="470" y="331"/>
      <point x="524" y="318"/>
    </contour>
  </outline>
</glyph>
<glyph name="Shep-beria" format="2">
  <advance width="684"/>
  <unicode hex="0043"/>
  <note>
C
</note>
  <outline>
    <contour>
      <point x="95" y="-72" type="line"/>
      <point x="95" y="-136" type="line"/>
      <point x="290" y="-136" type="line" smooth="yes"/>
      <point x="362" y="-136"/>
      <point x="418" y="-80"/>
      <point x="418" y="-5" type="curve" smooth="yes"/>
      <point x="418" y="187" type="line"/>
      <point x="563" y="187" type="line"/>
      <point x="563" y="250" type="line"/>
      <point x="418" y="250" type="line"/>
      <point x="418" y="379" type="line"/>
      <point x="563" y="379" type="line"/>
      <point x="563" y="441" type="line"/>
      <point x="418" y="441" type="line"/>
      <point x="418" y="605" type="line"/>
      <point x="585" y="605" type="line"/>
      <point x="585" y="668" type="line"/>
      <point x="183" y="668" type="line"/>
      <point x="183" y="605" type="line"/>
      <point x="350" y="605" type="line"/>
      <point x="350" y="441" type="line"/>
      <point x="205" y="441" type="line"/>
      <point x="205" y="379" type="line"/>
      <point x="350" y="379" type="line"/>
      <point x="350" y="250" type="line"/>
      <point x="205" y="250" type="line"/>
      <point x="205" y="187" type="line"/>
      <point x="350" y="187" type="line"/>
      <point x="350" y="31" type="line" smooth="yes"/>
      <point x="350" y="-44"/>
      <point x="323" y="-72"/>
      <point x="264" y="-72" type="curve" smooth="yes"/>
    </contour>
  </outline>
</glyph>
<glyph name="Day-beria" format="2">
  <advance width="795"/>
  <unicode hex="0044"/>
  <note>
D
</note>
  <outline>
    <contour>
      <point x="239" y="-136" type="curve" smooth="yes"/>
      <point x="529" y="-136" type="line" smooth="yes"/>
      <point x="601" y="-136"/>
      <point x="657" y="-80"/>
      <point x="657" y="-5" type="curve" smooth="yes"/>
      <point x="657" y="668" type="line"/>
      <point x="192" y="668" type="line"/>
      <point x="192" y="473" type="line"/>
      <point x="260" y="473" type="line"/>
      <point x="260" y="604" type="line"/>
      <point x="589" y="604" type="line"/>
      <point x="589" y="31" type="line" smooth="yes"/>
      <point x="589" y="-44"/>
      <point x="562" y="-72"/>
      <point x="503" y="-72" type="curve" smooth="yes"/>
      <point x="265" y="-72" type="line" smooth="yes"/>
      <point x="206" y="-72"/>
      <point x="179" y="-44"/>
      <point x="179" y="31" type="curve" smooth="yes"/>
      <point x="179" y="65" type="line"/>
      <point x="111" y="65" type="line"/>
      <point x="111" y="-5" type="line" smooth="yes"/>
      <point x="111" y="-80"/>
      <point x="167" y="-136"/>
    </contour>
  </outline>
</glyph>
<glyph name="Djay-beria" format="2">
  <advance width="887"/>
  <unicode hex="004A"/>
  <note>
J
</note>
  <outline>
    <contour>
      <point x="46" y="-111" type="curve"/>
      <point x="92" y="-157" type="line"/>
      <point x="147" y="-104"/>
      <point x="236" y="8"/>
      <point x="304" y="141" type="curve"/>
      <point x="416" y="12"/>
      <point x="555" y="-96"/>
      <point x="631" y="-136" type="curve"/>
      <point x="694" y="-136" type="line"/>
      <point x="694" y="604" type="line"/>
      <point x="825" y="604" type="line"/>
      <point x="825" y="668" type="line"/>
      <point x="627" y="668" type="line"/>
      <point x="627" y="-56" type="line"/>
      <point x="552" y="-6"/>
      <point x="431" y="94"/>
      <point x="335" y="208" type="curve"/>
      <point x="375" y="301"/>
      <point x="403" y="400"/>
      <point x="403" y="492" type="curve" smooth="yes"/>
      <point x="403" y="633"/>
      <point x="345" y="684"/>
      <point x="259" y="684" type="curve" smooth="yes"/>
      <point x="186" y="684"/>
      <point x="117" y="645"/>
      <point x="117" y="534" type="curve" smooth="yes"/>
      <point x="117" y="421"/>
      <point x="177" y="301"/>
      <point x="258" y="196" type="curve"/>
      <point x="194" y="59"/>
      <point x="101" y="-59"/>
    </contour>
    <contour>
      <point x="289" y="267" type="curve"/>
      <point x="228" y="353"/>
      <point x="184" y="445"/>
      <point x="184" y="534" type="curve" smooth="yes"/>
      <point x="184" y="595"/>
      <point x="220" y="622"/>
      <point x="259" y="622" type="curve" smooth="yes"/>
      <point x="308" y="622"/>
      <point x="336" y="583"/>
      <point x="336" y="490" type="curve" smooth="yes"/>
      <point x="336" y="418"/>
      <point x="317" y="341"/>
    </contour>
  </outline>
</glyph>
<glyph name="Elli-beria" format="2">
  <advance width="550"/>
  <unicode hex="004C"/>
  <note>
L
</note>
  <outline>
    <contour>
      <point x="153" y="668" type="line"/>
      <point x="153" y="604" type="line"/>
      <point x="241" y="604" type="line"/>
      <point x="241" y="-72" type="line"/>
      <point x="80" y="-72" type="line"/>
      <point x="80" y="-136" type="line"/>
      <point x="470" y="-136" type="line"/>
      <point x="470" y="-72" type="line"/>
      <point x="309" y="-72" type="line"/>
      <point x="309" y="604" type="line"/>
      <point x="398" y="604" type="line"/>
      <point x="398" y="668" type="line"/>
    </contour>
  </outline>
</glyph>
<glyph name="Emmi-beria" format="2">
  <advance width="838"/>
  <unicode hex="004D"/>
  <note>
M
</note>
  <outline>
    <contour>
      <point x="57" y="-139" type="curve"/>
      <point x="124" y="-151" type="line"/>
      <point x="136" y="-77"/>
      <point x="188" y="203"/>
      <point x="357" y="381" type="curve" smooth="yes"/>
      <point x="393" y="419"/>
      <point x="432" y="453"/>
      <point x="472" y="483" type="curve"/>
      <point x="666" y="171" type="line"/>
      <point x="724" y="207" type="line"/>
      <point x="529" y="522" type="line"/>
      <point x="594" y="564"/>
      <point x="662" y="597"/>
      <point x="732" y="624" type="curve"/>
      <point x="708" y="684" type="line"/>
      <point x="563" y="628"/>
      <point x="426" y="549"/>
      <point x="308" y="425" type="curve" smooth="yes"/>
      <point x="125" y="232"/>
      <point x="69" y="-61"/>
    </contour>
  </outline>
</glyph>
<glyph name="Erri-2-beria" format="2">
  <advance width="868"/>
  <unicode hex="0051"/>
  <outline>
    <contour>
      <point x="468" y="-9" type="curve" smooth="yes"/>
      <point x="468" y="264" type="line"/>
      <point x="750" y="264" type="line"/>
      <point x="750" y="630" type="line"/>
      <point x="683" y="630" type="line"/>
      <point x="683" y="328" type="line"/>
      <point x="468" y="328" type="line"/>
      <point x="468" y="675" type="line"/>
      <point x="400" y="675" type="line"/>
      <point x="400" y="328" type="line"/>
      <point x="185" y="328" type="line"/>
      <point x="185" y="630" type="line"/>
      <point x="118" y="630" type="line"/>
      <point x="118" y="264" type="line"/>
      <point x="400" y="264" type="line"/>
      <point x="400" y="-2" type="line" smooth="yes"/>
      <point x="400" y="-39"/>
      <point x="379" y="-72"/>
      <point x="343" y="-72" type="curve" smooth="yes"/>
      <point x="12" y="-72" type="line"/>
      <point x="12" y="-136" type="line"/>
      <point x="349" y="-136" type="line" smooth="yes"/>
      <point x="422" y="-136"/>
      <point x="468" y="-84"/>
    </contour>
  </outline>
</glyph>
<glyph name="Erri-beria" format="2">
  <advance width="868"/>
  <unicode hex="0052"/>
  <note>
R
</note>
  <outline>
    <contour>
      <point x="259" y="-72" type="line"/>
      <point x="259" y="-136" type="line"/>
      <point x="609" y="-136" type="line"/>
      <point x="609" y="-72" type="line"/>
      <point x="468" y="-72" type="line"/>
      <point x="468" y="264" type="line"/>
      <point x="750" y="264" type="line"/>
      <point x="750" y="630" type="line"/>
      <point x="683" y="630" type="line"/>
      <point x="683" y="328" type="line"/>
      <point x="468" y="328" type="line"/>
      <point x="468" y="675" type="line"/>
      <point x="400" y="675" type="line"/>
      <point x="400" y="328" type="line"/>
      <point x="185" y="328" type="line"/>
      <point x="185" y="630" type="line"/>
      <point x="118" y="630" type="line"/>
      <point x="118" y="264" type="line"/>
      <point x="400" y="264" type="line"/>
      <point x="400" y="-72" type="line"/>
    </contour>
  </outline>
</glyph>
<glyph name="Chei-beria" format="2">
  <advance width="664"/>
  <unicode hex="0053"/>
  <note>
S
</note>
  <outline>
    <contour>
      <point x="90" y="-72" type="line"/>
      <point x="90" y="-136" type="line"/>
      <point x="285" y="-136" type="line" smooth="yes"/>
      <point x="357" y="-136"/>
      <point x="413" y="-80"/>
      <point x="413" y="-5" type="curve" smooth="yes"/>
      <point x="413" y="344" type="line"/>
      <point x="558" y="344" type="line"/>
      <point x="558" y="407" type="line"/>
      <point x="413" y="407" type="line"/>
      <point x="413" y="604" type="line"/>
      <point x="580" y="604" type="line"/>
      <point x="580" y="668" type="line"/>
      <point x="178" y="668" type="line"/>
      <point x="178" y="604" type="line"/>
      <point x="345" y="604" type="line"/>
      <point x="345" y="407" type="line"/>
      <point x="200" y="407" type="line"/>
      <point x="200" y="344" type="line"/>
      <point x="345" y="344" type="line"/>
      <point x="345" y="31" type="line" smooth="yes"/>
      <point x="345" y="-44"/>
      <point x="318" y="-72"/>
      <point x="259" y="-72" type="curve" smooth="yes"/>
    </contour>
  </outline>
</glyph>
<glyph name="Uy-beria" format="2">
  <advance width="664"/>
  <unicode hex="0055"/>
  <note>
U
</note>
  <anchor x="262" y="720" name="U"/>
  <outline>
    <contour>
      <point x="193" y="604" type="line"/>
      <point x="193" y="-136" type="line"/>
      <point x="283" y="-136" type="line" smooth="yes"/>
      <point x="456" y="-136"/>
      <point x="592" y="-49"/>
      <point x="592" y="90" type="curve" smooth="yes"/>
      <point x="592" y="228"/>
      <point x="456" y="316"/>
      <point x="283" y="316" type="curve" smooth="yes"/>
      <point x="261" y="316" type="line"/>
      <point x="261" y="668" type="line"/>
      <point x="62" y="668" type="line"/>
      <point x="62" y="604" type="line"/>
    </contour>
    <contour>
      <point x="281" y="-73" type="curve" smooth="yes"/>
      <point x="260" y="-73" type="line"/>
      <point x="260" y="253" type="line"/>
      <point x="281" y="253" type="line" smooth="yes"/>
      <point x="421" y="253"/>
      <point x="525" y="196"/>
      <point x="525" y="90" type="curve" smooth="yes"/>
      <point x="525" y="-16"/>
      <point x="421" y="-73"/>
    </contour>
  </outline>
</glyph>
<glyph name="Way-beria" format="2">
  <advance width="884"/>
  <unicode hex="0057"/>
  <note>
W
</note>
  <outline>
    <contour>
      <point x="406" y="-73" type="line"/>
      <point x="114" y="673" type="line"/>
      <point x="52" y="646" type="line"/>
      <point x="334" y="-73" type="line"/>
      <point x="221" y="-73" type="line"/>
      <point x="221" y="-136" type="line"/>
      <point x="664" y="-136" type="line"/>
      <point x="664" y="-73" type="line"/>
      <point x="550" y="-73" type="line"/>
      <point x="832" y="646" type="line"/>
      <point x="771" y="673" type="line"/>
      <point x="478" y="-73" type="line"/>
      <point x="475" y="-73" type="line"/>
      <point x="475" y="674" type="line"/>
      <point x="409" y="674" type="line"/>
      <point x="409" y="-73" type="line"/>
    </contour>
  </outline>
</glyph>
<glyph name="Nay-beria" format="2">
  <advance width="757"/>
  <unicode hex="0058"/>
  <note>
X
</note>
  <outline>
    <contour>
      <point x="435" y="405" type="curve"/>
      <point x="463" y="424"/>
      <point x="498" y="469"/>
      <point x="498" y="521" type="curve" smooth="yes"/>
      <point x="498" y="624"/>
      <point x="410" y="668"/>
      <point x="309" y="668" type="curve" smooth="yes"/>
      <point x="135" y="668" type="line"/>
      <point x="135" y="0" type="line"/>
      <point x="202" y="0" type="line"/>
      <point x="202" y="350" type="line"/>
      <point x="350" y="350" type="line" smooth="yes"/>
      <point x="488" y="350"/>
      <point x="597" y="297"/>
      <point x="597" y="176" type="curve" smooth="yes"/>
      <point x="597" y="43"/>
      <point x="449" y="-73"/>
      <point x="311" y="-73" type="curve" smooth="yes"/>
      <point x="278" y="-73" type="line"/>
      <point x="278" y="-136" type="line"/>
      <point x="661" y="-136" type="line"/>
      <point x="661" y="-73" type="line"/>
      <point x="504" y="-73" type="line"/>
      <point x="598" y="-25"/>
      <point x="665" y="63"/>
      <point x="665" y="177" type="curve" smooth="yes"/>
      <point x="665" y="306"/>
      <point x="560" y="388"/>
    </contour>
    <contour>
      <point x="310" y="411" type="curve" smooth="yes"/>
      <point x="202" y="411" type="line"/>
      <point x="202" y="609" type="line"/>
      <point x="305" y="609" type="line" smooth="yes"/>
      <point x="377" y="609"/>
      <point x="431" y="581"/>
      <point x="431" y="521" type="curve" smooth="yes"/>
      <point x="431" y="463"/>
      <point x="374" y="411"/>
    </contour>
  </outline>
</glyph>
<glyph name="bracketleft" format="2">
  <advance width="438"/>
  <unicode hex="005B"/>
  <note>
bracketleft
</note>
  <outline>
    <contour>
      <point x="158" y="844" type="line"/>
      <point x="158" y="-156" type="line"/>
      <point x="330" y="-156" type="line"/>
      <point x="330" y="-92" type="line"/>
      <point x="226" y="-92" type="line"/>
      <point x="226" y="780" type="line"/>
      <point x="330" y="780" type="line"/>
      <point x="330" y="844" type="line"/>
    </contour>
  </outline>
</glyph>
<glyph name="backslash" format="2">
  <advance width="712"/>
  <unicode hex="005C"/>
  <note>
backslash
</note>
  <outline>
    <contour>
      <point x="641" y="-159" type="line"/>
      <point x="695" y="-117" type="line"/>
      <point x="71" y="731" type="line"/>
      <point x="17" y="689" type="line"/>
    </contour>
  </outline>
</glyph>
<glyph name="bracketright" format="2">
  <advance width="438"/>
  <unicode hex="005D"/>
  <note>
bracketright
</note>
  <outline>
    <contour>
      <point x="108" y="-92" type="line"/>
      <point x="108" y="-156" type="line"/>
      <point x="280" y="-156" type="line"/>
      <point x="280" y="844" type="line"/>
      <point x="108" y="844" type="line"/>
      <point x="108" y="780" type="line"/>
      <point x="212" y="780" type="line"/>
      <point x="212" y="-92" type="line"/>
    </contour>
  </outline>
</glyph>
<glyph name="underscore" format="2">
  <advance width="508"/>
  <unicode hex="005F"/>
  <note>
underscore
</note>
  <outline>
    <contour>
      <point x="4" y="-136" type="line"/>
      <point x="4" y="-200" type="line"/>
      <point x="504" y="-200" type="line"/>
      <point x="504" y="-136" type="line"/>
    </contour>
  </outline>
</glyph>
<glyph name="ay-beria" format="2">
  <advance width="676"/>
  <unicode hex="0061"/>
  <note>
a
</note>
  <anchor x="338" y="720" name="U"/>
  <outline>
    <contour>
      <point x="338" y="267" type="line"/>
      <point x="552" y="-16" type="line"/>
      <point x="602" y="24" type="line"/>
      <point x="378" y="320" type="line"/>
      <point x="600" y="614" type="line"/>
      <point x="600" y="668" type="line"/>
      <point x="74" y="668" type="line"/>
      <point x="74" y="614" type="line"/>
      <point x="299" y="317" type="line"/>
      <point x="77" y="24" type="line"/>
      <point x="124" y="-15" type="line"/>
    </contour>
    <contour>
      <point x="521" y="610" type="line"/>
      <point x="340" y="370" type="line"/>
      <point x="157" y="610" type="line"/>
    </contour>
  </outline>
</glyph>
<glyph name="bay-beria" format="2">
  <advance width="634"/>
  <unicode hex="0062"/>
  <note>
b
</note>
  <outline>
    <contour>
      <point x="448" y="316" type="line"/>
      <point x="448" y="0" type="line"/>
      <point x="512" y="0" type="line"/>
      <point x="512" y="668" type="line"/>
      <point x="235" y="668" type="line"/>
      <point x="235" y="608" type="line"/>
      <point x="448" y="608" type="line"/>
      <point x="448" y="376" type="line"/>
      <point x="225" y="376" type="line" smooth="yes"/>
      <point x="152" y="376"/>
      <point x="102" y="329"/>
      <point x="102" y="254" type="curve" smooth="yes"/>
      <point x="102" y="0" type="line"/>
      <point x="166" y="0" type="line"/>
      <point x="166" y="250" type="line" smooth="yes"/>
      <point x="166" y="287"/>
      <point x="193" y="316"/>
      <point x="229" y="316" type="curve" smooth="yes"/>
    </contour>
  </outline>
</glyph>
<glyph name="day-beria" format="2">
  <advance width="657"/>
  <unicode hex="0064"/>
  <note>
d
</note>
  <outline>
    <contour>
      <point x="92" y="60" type="line"/>
      <point x="92" y="0" type="line"/>
      <point x="417" y="0" type="line" smooth="yes"/>
      <point x="490" y="0"/>
      <point x="540" y="47"/>
      <point x="540" y="122" type="curve" smooth="yes"/>
      <point x="540" y="668" type="line"/>
      <point x="114" y="668" type="line"/>
      <point x="114" y="478" type="line"/>
      <point x="178" y="478" type="line"/>
      <point x="178" y="609" type="line"/>
      <point x="476" y="609" type="line"/>
      <point x="476" y="126" type="line" smooth="yes"/>
      <point x="476" y="89"/>
      <point x="449" y="60"/>
      <point x="413" y="60" type="curve" smooth="yes"/>
    </contour>
  </outline>
</glyph>
<glyph name="ey-beria" format="2">
  <advance width="670"/>
  <unicode hex="0065"/>
  <note>
e
</note>
  <anchor x="335" y="720" name="U"/>
  <outline>
    <contour>
      <point x="209" y="57" type="line"/>
      <point x="209" y="0" type="line"/>
      <point x="528" y="0" type="line"/>
      <point x="528" y="60" type="line"/>
      <point x="282" y="60" type="line"/>
      <point x="384" y="226" type="line"/>
      <point x="498" y="226" type="line"/>
      <point x="498" y="285" type="line"/>
      <point x="353" y="285" type="line" smooth="yes"/>
      <point x="210" y="285"/>
      <point x="119" y="347"/>
      <point x="119" y="456" type="curve" smooth="yes"/>
      <point x="119" y="565"/>
      <point x="214" y="626"/>
      <point x="340" y="626" type="curve" smooth="yes"/>
      <point x="442" y="626"/>
      <point x="522" y="587"/>
      <point x="568" y="517" type="curve"/>
      <point x="620" y="555" type="line"/>
      <point x="560" y="644"/>
      <point x="458" y="685"/>
      <point x="340" y="685" type="curve" smooth="yes"/>
      <point x="173" y="685"/>
      <point x="54" y="596"/>
      <point x="54" y="453" type="curve" smooth="yes"/>
      <point x="54" y="320"/>
      <point x="164" y="234"/>
      <point x="315" y="228" type="curve"/>
    </contour>
  </outline>
</glyph>
<glyph name="effi-beria" format="2">
  <advance width="628"/>
  <unicode hex="0066"/>
  <note>
f
</note>
  <outline>
    <contour>
      <point x="93" y="60" type="line"/>
      <point x="93" y="0" type="line"/>
      <point x="265" y="0" type="line" smooth="yes"/>
      <point x="441" y="0"/>
      <point x="527" y="51"/>
      <point x="527" y="334" type="curve" smooth="yes"/>
      <point x="527" y="616"/>
      <point x="441" y="668"/>
      <point x="265" y="668" type="curve" smooth="yes"/>
      <point x="93" y="668" type="line"/>
      <point x="93" y="608" type="line"/>
      <point x="279" y="608" type="line" smooth="yes"/>
      <point x="409" y="608"/>
      <point x="463" y="561"/>
      <point x="463" y="334" type="curve" smooth="yes"/>
      <point x="463" y="106"/>
      <point x="409" y="60"/>
      <point x="279" y="60" type="curve" smooth="yes"/>
    </contour>
  </outline>
</glyph>
<glyph name="gay-beria" format="2">
  <advance width="755"/>
  <unicode hex="0067"/>
  <note>
g
</note>
  <outline>
    <contour>
      <point x="345" y="158" type="curve"/>
      <point x="345" y="0" type="line"/>
      <point x="408" y="0" type="line"/>
      <point x="408" y="158" type="line"/>
      <point x="498" y="114"/>
      <point x="591" y="80"/>
      <point x="656" y="57" type="curve"/>
      <point x="678" y="114" type="line"/>
      <point x="616" y="135"/>
      <point x="528" y="170"/>
      <point x="441" y="210" type="curve"/>
      <point x="562" y="282"/>
      <point x="660" y="370"/>
      <point x="660" y="481" type="curve" smooth="yes"/>
      <point x="660" y="594"/>
      <point x="557" y="684"/>
      <point x="376" y="684" type="curve" smooth="yes"/>
      <point x="196" y="684"/>
      <point x="93" y="594"/>
      <point x="93" y="481" type="curve" smooth="yes"/>
      <point x="93" y="368"/>
      <point x="191" y="279"/>
      <point x="310" y="209" type="curve"/>
      <point x="225" y="169"/>
      <point x="137" y="137"/>
      <point x="76" y="116" type="curve"/>
      <point x="99" y="57" type="line"/>
      <point x="164" y="79"/>
      <point x="255" y="114"/>
    </contour>
    <contour>
      <point x="376" y="242" type="curve"/>
      <point x="258" y="305"/>
      <point x="157" y="385"/>
      <point x="157" y="481" type="curve" smooth="yes"/>
      <point x="157" y="561"/>
      <point x="237" y="625"/>
      <point x="376" y="625" type="curve" smooth="yes"/>
      <point x="516" y="625"/>
      <point x="596" y="561"/>
      <point x="596" y="481" type="curve" smooth="yes"/>
      <point x="596" y="387"/>
      <point x="496" y="306"/>
    </contour>
  </outline>
</glyph>
<glyph name="hay-beria" format="2">
  <advance width="748"/>
  <unicode hex="0068"/>
  <note>
h
</note>
  <outline>
    <contour>
      <point x="122" y="668" type="line"/>
      <point x="122" y="0" type="line"/>
      <point x="186" y="0" type="line"/>
      <point x="186" y="608" type="line"/>
      <point x="562" y="608" type="line"/>
      <point x="562" y="0" type="line"/>
      <point x="626" y="0" type="line"/>
      <point x="626" y="668" type="line"/>
    </contour>
  </outline>
</glyph>
<glyph name="djay-beria" format="2">
  <advance width="778"/>
  <unicode hex="006A"/>
  <note>
j
</note>
  <outline>
    <contour>
      <point x="38" y="23" type="curve"/>
      <point x="87" y="-16" type="line"/>
      <point x="105" y="6"/>
      <point x="166" y="87"/>
      <point x="224" y="187" type="curve"/>
      <point x="284" y="92"/>
      <point x="342" y="23"/>
      <point x="388" y="-14" type="curve"/>
      <point x="434" y="22"/>
      <point x="490" y="94"/>
      <point x="551" y="187" type="curve"/>
      <point x="610" y="87"/>
      <point x="671" y="6"/>
      <point x="689" y="-16" type="curve"/>
      <point x="739" y="22" type="line"/>
      <point x="720" y="46"/>
      <point x="650" y="138"/>
      <point x="589" y="248" type="curve"/>
      <point x="642" y="342"/>
      <point x="682" y="446"/>
      <point x="682" y="542" type="curve" smooth="yes"/>
      <point x="682" y="649"/>
      <point x="625" y="684"/>
      <point x="551" y="684" type="curve" smooth="yes"/>
      <point x="477" y="684"/>
      <point x="424" y="650"/>
      <point x="424" y="542" type="curve" smooth="yes"/>
      <point x="424" y="453"/>
      <point x="466" y="346"/>
      <point x="517" y="248" type="curve"/>
      <point x="476" y="176"/>
      <point x="425" y="110"/>
      <point x="388" y="70" type="curve"/>
      <point x="350" y="110"/>
      <point x="302" y="173"/>
      <point x="259" y="249" type="curve"/>
      <point x="311" y="347"/>
      <point x="352" y="453"/>
      <point x="352" y="542" type="curve" smooth="yes"/>
      <point x="352" y="650"/>
      <point x="300" y="684"/>
      <point x="225" y="684" type="curve" smooth="yes"/>
      <point x="150" y="684"/>
      <point x="94" y="649"/>
      <point x="94" y="542" type="curve" smooth="yes"/>
      <point x="94" y="446"/>
      <point x="134" y="342"/>
      <point x="186" y="248" type="curve"/>
      <point x="125" y="138"/>
      <point x="57" y="47"/>
    </contour>
    <contour>
      <point x="222" y="312" type="curve"/>
      <point x="184" y="387"/>
      <point x="157" y="467"/>
      <point x="157" y="542" type="curve" smooth="yes"/>
      <point x="157" y="605"/>
      <point x="186" y="628"/>
      <point x="225" y="628" type="curve" smooth="yes"/>
      <point x="263" y="628"/>
      <point x="290" y="606"/>
      <point x="290" y="542" type="curve" smooth="yes"/>
      <point x="290" y="473"/>
      <point x="260" y="391"/>
    </contour>
    <contour>
      <point x="554" y="312" type="curve"/>
      <point x="515" y="391"/>
      <point x="486" y="473"/>
      <point x="486" y="542" type="curve" smooth="yes"/>
      <point x="486" y="606"/>
      <point x="513" y="628"/>
      <point x="551" y="628" type="curve" smooth="yes"/>
      <point x="590" y="628"/>
      <point x="619" y="605"/>
      <point x="619" y="542" type="curve" smooth="yes"/>
      <point x="619" y="467"/>
      <point x="591" y="387"/>
    </contour>
  </outline>
</glyph>
<glyph name="elli-beria" format="2">
  <advance width="548"/>
  <unicode hex="006C"/>
  <note>
l
</note>
  <outline>
    <contour>
      <point x="70" y="60" type="line"/>
      <point x="70" y="0" type="line"/>
      <point x="478" y="0" type="line"/>
      <point x="478" y="60" type="line"/>
      <point x="306" y="60" type="line"/>
      <point x="306" y="668" type="line"/>
      <point x="242" y="668" type="line"/>
      <point x="242" y="60" type="line"/>
    </contour>
  </outline>
</glyph>
<glyph name="enni-beria" format="2">
  <advance width="703"/>
  <unicode hex="006E"/>
  <note>
n
</note>
  <outline>
    <contour>
      <point x="176" y="668" type="line"/>
      <point x="176" y="609" type="line"/>
      <point x="320" y="609" type="line"/>
      <point x="320" y="392" type="line"/>
      <point x="180" y="382"/>
      <point x="80" y="300"/>
      <point x="80" y="189" type="curve" smooth="yes"/>
      <point x="80" y="68"/>
      <point x="194" y="-15"/>
      <point x="351" y="-15" type="curve" smooth="yes"/>
      <point x="509" y="-15"/>
      <point x="623" y="68"/>
      <point x="623" y="189" type="curve" smooth="yes"/>
      <point x="623" y="301"/>
      <point x="524" y="382"/>
      <point x="382" y="392" type="curve"/>
      <point x="382" y="609" type="line"/>
      <point x="525" y="609" type="line"/>
      <point x="525" y="668" type="line"/>
    </contour>
    <contour>
      <point x="559" y="189" type="curve" smooth="yes"/>
      <point x="559" y="108"/>
      <point x="487" y="52"/>
      <point x="381" y="44" type="curve"/>
      <point x="381" y="334" type="line"/>
      <point x="487" y="325"/>
      <point x="559" y="268"/>
    </contour>
    <contour>
      <point x="144" y="189" type="curve" smooth="yes"/>
      <point x="144" y="268"/>
      <point x="214" y="325"/>
      <point x="320" y="334" type="curve"/>
      <point x="320" y="44" type="line"/>
      <point x="214" y="53"/>
      <point x="144" y="108"/>
    </contour>
  </outline>
</glyph>
<glyph name="pi-beria" format="2">
  <advance width="660"/>
  <unicode hex="0070"/>
  <note>
p
</note>
  <outline>
    <contour>
      <point x="102" y="255" type="curve" smooth="yes"/>
      <point x="102" y="0" type="line"/>
      <point x="612" y="0" type="line"/>
      <point x="612" y="59" type="line"/>
      <point x="506" y="59" type="line"/>
      <point x="506" y="668" type="line"/>
      <point x="224" y="668" type="line"/>
      <point x="224" y="608" type="line"/>
      <point x="442" y="608" type="line"/>
      <point x="442" y="376" type="line"/>
      <point x="224" y="376" type="line" smooth="yes"/>
      <point x="154" y="376"/>
      <point x="102" y="324"/>
    </contour>
    <contour>
      <point x="442" y="59" type="line"/>
      <point x="165" y="59" type="line"/>
      <point x="165" y="255" type="line" smooth="yes"/>
      <point x="165" y="288"/>
      <point x="188" y="317"/>
      <point x="222" y="317" type="curve" smooth="yes"/>
      <point x="442" y="317" type="line"/>
    </contour>
  </outline>
</glyph>
<glyph name="erri-2-beria" format="2">
  <advance width="828"/>
  <unicode hex="0071"/>
  <outline>
    <contour>
      <point x="643" y="324" type="line"/>
      <point x="185" y="324" type="line"/>
      <point x="185" y="668" type="line"/>
      <point x="122" y="668" type="line"/>
      <point x="122" y="264" type="line"/>
      <point x="706" y="264" type="line"/>
      <point x="706" y="668" type="line"/>
      <point x="643" y="668" type="line"/>
    </contour>
    <contour>
      <point x="445" y="122" type="curve" smooth="yes"/>
      <point x="445" y="668" type="line"/>
      <point x="383" y="668" type="line"/>
      <point x="383" y="126" type="line" smooth="yes"/>
      <point x="383" y="89"/>
      <point x="354" y="60"/>
      <point x="318" y="60" type="curve" smooth="yes"/>
      <point x="122" y="60" type="line"/>
      <point x="122" y="0" type="line"/>
      <point x="322" y="0" type="line" smooth="yes"/>
      <point x="395" y="0"/>
      <point x="445" y="47"/>
    </contour>
  </outline>
</glyph>
<glyph name="erri-beria" format="2">
  <advance width="828"/>
  <unicode hex="0072"/>
  <note>
r
</note>
  <outline>
    <contour>
      <point x="383" y="60" type="line"/>
      <point x="185" y="60" type="line"/>
      <point x="185" y="668" type="line"/>
      <point x="122" y="668" type="line"/>
      <point x="122" y="0" type="line"/>
      <point x="706" y="0" type="line"/>
      <point x="706" y="668" type="line"/>
      <point x="643" y="668" type="line"/>
      <point x="643" y="60" type="line"/>
      <point x="445" y="60" type="line"/>
      <point x="445" y="668" type="line"/>
      <point x="383" y="668" type="line"/>
    </contour>
  </outline>
</glyph>
<glyph name="tai-beria" format="2">
  <advance width="651"/>
  <unicode hex="0074"/>
  <note>
t
</note>
  <outline>
    <contour>
      <point x="180" y="55" type="line"/>
      <point x="180" y="0" type="line"/>
      <point x="540" y="0" type="line"/>
      <point x="540" y="60" type="line"/>
      <point x="255" y="60" type="line"/>
      <point x="591" y="647" type="line"/>
      <point x="537" y="679" type="line"/>
      <point x="359" y="368" type="line"/>
      <point x="89" y="673" type="line"/>
      <point x="41" y="628" type="line"/>
      <point x="324" y="307" type="line"/>
    </contour>
  </outline>
</glyph>
<glyph name="yay-beria" format="2">
  <advance width="622"/>
  <unicode hex="0079"/>
  <note>
y
</note>
  <outline>
    <contour>
      <point x="75" y="409" type="curve"/>
      <point x="88" y="350" type="line"/>
      <point x="123" y="357"/>
      <point x="174" y="367"/>
      <point x="227" y="381" type="curve"/>
      <point x="239" y="369"/>
      <point x="252" y="358"/>
      <point x="266" y="348" type="curve" smooth="yes"/>
      <point x="283" y="334"/>
      <point x="301" y="321"/>
      <point x="318" y="308" type="curve"/>
      <point x="210" y="272"/>
      <point x="123" y="221"/>
      <point x="123" y="129" type="curve" smooth="yes"/>
      <point x="123" y="22"/>
      <point x="216" y="-15"/>
      <point x="304" y="-15" type="curve" smooth="yes"/>
      <point x="402" y="-15"/>
      <point x="504" y="32"/>
      <point x="504" y="150" type="curve" smooth="yes"/>
      <point x="504" y="201"/>
      <point x="479" y="243"/>
      <point x="443" y="281" type="curve"/>
      <point x="481" y="289"/>
      <point x="517" y="296"/>
      <point x="546" y="302" type="curve"/>
      <point x="532" y="363" type="line"/>
      <point x="486" y="352"/>
      <point x="437" y="341"/>
      <point x="389" y="329" type="curve"/>
      <point x="358" y="354"/>
      <point x="325" y="377"/>
      <point x="295" y="401" type="curve"/>
      <point x="384" y="433"/>
      <point x="463" y="481"/>
      <point x="463" y="557" type="curve" smooth="yes"/>
      <point x="463" y="643"/>
      <point x="380" y="684"/>
      <point x="308" y="684" type="curve" smooth="yes"/>
      <point x="227" y="684"/>
      <point x="135" y="643"/>
      <point x="135" y="546" type="curve" smooth="yes"/>
      <point x="135" y="503"/>
      <point x="152" y="464"/>
      <point x="180" y="430" type="curve"/>
      <point x="135" y="419"/>
      <point x="96" y="413"/>
    </contour>
    <contour>
      <point x="440" y="150" type="curve" smooth="yes"/>
      <point x="440" y="74"/>
      <point x="371" y="44"/>
      <point x="304" y="44" type="curve" smooth="yes"/>
      <point x="246" y="44"/>
      <point x="188" y="67"/>
      <point x="188" y="131" type="curve" smooth="yes"/>
      <point x="188" y="197"/>
      <point x="277" y="237"/>
      <point x="373" y="263" type="curve"/>
      <point x="412" y="229"/>
      <point x="440" y="192"/>
    </contour>
    <contour>
      <point x="199" y="546" type="curve" smooth="yes"/>
      <point x="199" y="602"/>
      <point x="257" y="625"/>
      <point x="308" y="625" type="curve" smooth="yes"/>
      <point x="351" y="625"/>
      <point x="399" y="603"/>
      <point x="399" y="558" type="curve" smooth="yes"/>
      <point x="399" y="506"/>
      <point x="324" y="470"/>
      <point x="245" y="447" type="curve"/>
      <point x="217" y="477"/>
      <point x="199" y="509"/>
    </contour>
  </outline>
</glyph>
<glyph name="braceleft" format="2">
  <advance width="489"/>
  <unicode hex="007B"/>
  <note>
braceleft
</note>
  <outline>
    <contour>
      <point x="381" y="-164" type="line"/>
      <point x="402" y="-105" type="line"/>
      <point x="283" y="-63" type="line"/>
      <point x="307" y="231" type="line"/>
      <point x="201" y="343" type="line"/>
      <point x="307" y="455" type="line"/>
      <point x="283" y="750" type="line"/>
      <point x="402" y="792" type="line"/>
      <point x="383" y="851" type="line"/>
      <point x="212" y="792" type="line"/>
      <point x="237" y="476" type="line"/>
      <point x="117" y="349" type="line"/>
      <point x="117" y="337" type="line"/>
      <point x="237" y="210" type="line"/>
      <point x="212" y="-105" type="line"/>
    </contour>
  </outline>
</glyph>
<glyph name="bar" format="2">
  <advance width="342"/>
  <unicode hex="007C"/>
  <note>
bar
</note>
  <outline>
    <contour>
      <point x="204" y="768" type="line"/>
      <point x="138" y="768" type="line"/>
      <point x="138" y="-171" type="line"/>
      <point x="204" y="-171" type="line"/>
    </contour>
  </outline>
</glyph>
<glyph name="braceright" format="2">
  <advance width="489"/>
  <unicode hex="007D"/>
  <note>
braceright
</note>
  <outline>
    <contour>
      <point x="87" y="-105" type="line"/>
      <point x="108" y="-164" type="line"/>
      <point x="277" y="-105" type="line"/>
      <point x="252" y="210" type="line"/>
      <point x="372" y="337" type="line"/>
      <point x="372" y="349" type="line"/>
      <point x="252" y="476" type="line"/>
      <point x="277" y="792" type="line"/>
      <point x="106" y="851" type="line"/>
      <point x="87" y="792" type="line"/>
      <point x="206" y="750" type="line"/>
      <point x="182" y="455" type="line"/>
      <point x="288" y="343" type="line"/>
      <point x="182" y="231" type="line"/>
      <point x="206" y="-63" type="line"/>
    </contour>
  </outline>
</glyph>
<glyph name="asciitilde" format="2">
  <advance width="556"/>
  <unicode hex="007E"/>
  <note>
asciitilde
</note>
  <outline>
    <contour>
      <point x="41" y="269" type="curve"/>
      <point x="91" y="232" type="line"/>
      <point x="111" y="262"/>
      <point x="141" y="300"/>
      <point x="182" y="300" type="curve" smooth="yes"/>
      <point x="236" y="300"/>
      <point x="289" y="232"/>
      <point x="372" y="232" type="curve" smooth="yes"/>
      <point x="437" y="232"/>
      <point x="488" y="278"/>
      <point x="515" y="318" type="curve"/>
      <point x="467" y="359" type="line"/>
      <point x="451" y="338"/>
      <point x="417" y="297"/>
      <point x="373" y="297" type="curve" smooth="yes"/>
      <point x="300" y="297"/>
      <point x="260" y="364"/>
      <point x="179" y="364" type="curve" smooth="yes"/>
      <point x="118" y="364"/>
      <point x="72" y="321"/>
    </contour>
  </outline>
</glyph>
<glyph name="cent" format="2">
  <advance width="531"/>
  <unicode hex="00A2"/>
  <note>
cent
</note>
  <outline>
    <contour>
      <point x="278" y="109" type="curve"/>
      <point x="278" y="-36" type="line"/>
      <point x="340" y="-36" type="line"/>
      <point x="340" y="107" type="line"/>
      <point x="457" y="107" type="line"/>
      <point x="457" y="168" type="line"/>
      <point x="340" y="168" type="line"/>
      <point x="340" y="522" type="line"/>
      <point x="457" y="522" type="line"/>
      <point x="457" y="583" type="line"/>
      <point x="340" y="583" type="line"/>
      <point x="340" y="713" type="line"/>
      <point x="278" y="713" type="line"/>
      <point x="278" y="581" type="line"/>
      <point x="136" y="565"/>
      <point x="70" y="469"/>
      <point x="70" y="345" type="curve" smooth="yes"/>
      <point x="70" y="219"/>
      <point x="136" y="125"/>
    </contour>
    <contour>
      <point x="137" y="345" type="curve" smooth="yes"/>
      <point x="137" y="434"/>
      <point x="172" y="506"/>
      <point x="278" y="520" type="curve"/>
      <point x="278" y="171" type="line"/>
      <point x="172" y="185"/>
      <point x="137" y="255"/>
    </contour>
  </outline>
</glyph>
<glyph name="sterling" format="2">
  <advance width="501"/>
  <unicode hex="00A3"/>
  <note>
sterling
</note>
  <outline>
    <contour>
      <point x="103" y="374" type="line"/>
      <point x="103" y="314" type="line"/>
      <point x="191" y="314" type="line"/>
      <point x="180" y="214"/>
      <point x="168" y="105"/>
      <point x="164" y="60" type="curve"/>
      <point x="74" y="60" type="line"/>
      <point x="74" y="0" type="line"/>
      <point x="439" y="0" type="line"/>
      <point x="439" y="60" type="line"/>
      <point x="230" y="60" type="line"/>
      <point x="235" y="109"/>
      <point x="247" y="216"/>
      <point x="257" y="314" type="curve"/>
      <point x="402" y="314" type="line"/>
      <point x="402" y="374" type="line"/>
      <point x="264" y="374" type="line"/>
      <point x="271" y="437"/>
      <point x="277" y="489"/>
      <point x="279" y="502" type="curve" smooth="yes"/>
      <point x="290" y="584"/>
      <point x="327" y="613"/>
      <point x="411" y="613" type="curve" smooth="yes"/>
      <point x="435" y="613" type="line"/>
      <point x="435" y="673" type="line"/>
      <point x="401" y="673" type="line" smooth="yes"/>
      <point x="295" y="673"/>
      <point x="228" y="623"/>
      <point x="214" y="510" type="curve" smooth="yes"/>
      <point x="212" y="497"/>
      <point x="206" y="442"/>
      <point x="198" y="374" type="curve"/>
    </contour>
  </outline>
</glyph>
<glyph name="yen" format="2">
  <advance width="630"/>
  <unicode hex="00A5"/>
  <note>
yen
</note>
  <outline>
    <contour>
      <point x="286" y="103" type="line"/>
      <point x="286" y="0" type="line"/>
      <point x="350" y="0" type="line"/>
      <point x="350" y="103" type="line"/>
      <point x="488" y="103" type="line"/>
      <point x="488" y="163" type="line"/>
      <point x="350" y="163" type="line"/>
      <point x="350" y="271" type="line"/>
      <point x="488" y="271" type="line"/>
      <point x="488" y="331" type="line"/>
      <point x="376" y="331" type="line"/>
      <point x="608" y="634" type="line"/>
      <point x="558" y="674" type="line"/>
      <point x="320" y="363" type="line"/>
      <point x="72" y="674" type="line"/>
      <point x="21" y="632" type="line"/>
      <point x="261" y="331" type="line"/>
      <point x="148" y="331" type="line"/>
      <point x="148" y="271" type="line"/>
      <point x="286" y="271" type="line"/>
      <point x="286" y="163" type="line"/>
      <point x="148" y="163" type="line"/>
      <point x="148" y="103" type="line"/>
    </contour>
  </outline>
</glyph>
<glyph name="section" format="2">
  <advance width="596"/>
  <unicode hex="00A7"/>
  <note>
section
</note>
  <outline>
    <contour>
      <point x="363" y="-50" type="curve" smooth="yes"/>
      <point x="485" y="-50" type="line"/>
      <point x="485" y="10" type="line"/>
      <point x="359" y="10" type="line" smooth="yes"/>
      <point x="236" y="10"/>
      <point x="176" y="41"/>
      <point x="168" y="212" type="curve"/>
      <point x="233" y="212" type="line" smooth="yes"/>
      <point x="409" y="212"/>
      <point x="495" y="272"/>
      <point x="495" y="513" type="curve" smooth="yes"/>
      <point x="495" y="753"/>
      <point x="409" y="814"/>
      <point x="233" y="814" type="curve" smooth="yes"/>
      <point x="111" y="814" type="line"/>
      <point x="111" y="754" type="line"/>
      <point x="237" y="754" type="line" smooth="yes"/>
      <point x="360" y="754"/>
      <point x="420" y="721"/>
      <point x="428" y="552" type="curve"/>
      <point x="363" y="552" type="line" smooth="yes"/>
      <point x="187" y="552"/>
      <point x="101" y="491"/>
      <point x="101" y="251" type="curve" smooth="yes"/>
      <point x="101" y="10"/>
      <point x="187" y="-50"/>
    </contour>
    <contour>
      <point x="237" y="272" type="curve" smooth="yes"/>
      <point x="167" y="272" type="line"/>
      <point x="171" y="457"/>
      <point x="231" y="492"/>
      <point x="359" y="492" type="curve" smooth="yes"/>
      <point x="429" y="492" type="line"/>
      <point x="424" y="305"/>
      <point x="364" y="272"/>
    </contour>
  </outline>
</glyph>
<glyph name="copyright" format="2">
  <advance width="926"/>
  <unicode hex="00A9"/>
  <note>
copyright
</note>
  <outline>
    <contour>
      <point x="490" y="106" type="curve" smooth="yes"/>
      <point x="550" y="106"/>
      <point x="600" y="125"/>
      <point x="600" y="125" type="curve"/>
      <point x="588" y="181" type="line"/>
      <point x="588" y="181"/>
      <point x="542" y="166"/>
      <point x="487" y="166" type="curve" smooth="yes"/>
      <point x="356" y="166"/>
      <point x="310" y="232"/>
      <point x="310" y="334" type="curve" smooth="yes"/>
      <point x="310" y="436"/>
      <point x="356" y="502"/>
      <point x="487" y="502" type="curve" smooth="yes"/>
      <point x="542" y="502"/>
      <point x="585" y="490"/>
      <point x="585" y="490" type="curve"/>
      <point x="597" y="545" type="line"/>
      <point x="597" y="545"/>
      <point x="551" y="562"/>
      <point x="490" y="562" type="curve" smooth="yes"/>
      <point x="323" y="562"/>
      <point x="244" y="470"/>
      <point x="244" y="334" type="curve" smooth="yes"/>
      <point x="244" y="197"/>
      <point x="323" y="106"/>
    </contour>
    <contour>
      <point x="463" y="-67" type="curve" smooth="yes"/>
      <point x="687" y="-67"/>
      <point x="866" y="85"/>
      <point x="866" y="336" type="curve" smooth="yes"/>
      <point x="866" y="587"/>
      <point x="687" y="739"/>
      <point x="463" y="739" type="curve" smooth="yes"/>
      <point x="239" y="739"/>
      <point x="60" y="587"/>
      <point x="60" y="336" type="curve" smooth="yes"/>
      <point x="60" y="85"/>
      <point x="239" y="-67"/>
    </contour>
    <contour>
      <point x="463" y="-6" type="curve" smooth="yes"/>
      <point x="275" y="-6"/>
      <point x="128" y="123"/>
      <point x="128" y="336" type="curve" smooth="yes"/>
      <point x="128" y="549"/>
      <point x="275" y="678"/>
      <point x="463" y="678" type="curve" smooth="yes"/>
      <point x="651" y="678"/>
      <point x="798" y="549"/>
      <point x="798" y="336" type="curve" smooth="yes"/>
      <point x="798" y="123"/>
      <point x="651" y="-6"/>
    </contour>
  </outline>
</glyph>
<glyph name="guillemotleft" format="2">
  <advance width="781"/>
  <unicode hex="00AB"/>
  <note>
guillemotleft
</note>
  <outline>
    <contour>
      <point x="64" y="325" type="line"/>
      <point x="405" y="46" type="line"/>
      <point x="446" y="94" type="line"/>
      <point x="160" y="330" type="line"/>
      <point x="445" y="565" type="line"/>
      <point x="405" y="614" type="line"/>
      <point x="64" y="335" type="line"/>
    </contour>
    <contour>
      <point x="307" y="325" type="line"/>
      <point x="648" y="46" type="line"/>
      <point x="689" y="94" type="line"/>
      <point x="403" y="330" type="line"/>
      <point x="688" y="565" type="line"/>
      <point x="648" y="614" type="line"/>
      <point x="307" y="335" type="line"/>
    </contour>
  </outline>
</glyph>
<glyph name="logicalnot" format="2">
  <advance width="676"/>
  <unicode hex="00AC"/>
  <note>
logicalnot
</note>
  <outline>
    <contour>
      <point x="490" y="328" type="line"/>
      <point x="490" y="134" type="line"/>
      <point x="558" y="134" type="line"/>
      <point x="558" y="392" type="line"/>
      <point x="94" y="392" type="line"/>
      <point x="94" y="328" type="line"/>
    </contour>
  </outline>
</glyph>
<glyph name="registered" format="2">
  <advance width="926"/>
  <unicode hex="00AE"/>
  <note>
registered
</note>
  <outline>
    <contour>
      <point x="459" y="296" type="curve"/>
      <point x="579" y="85" type="line"/>
      <point x="632" y="115" type="line"/>
      <point x="521" y="307" type="line"/>
      <point x="590" y="328"/>
      <point x="631" y="375"/>
      <point x="631" y="442" type="curve" smooth="yes"/>
      <point x="631" y="536"/>
      <point x="554" y="586"/>
      <point x="430" y="586" type="curve" smooth="yes"/>
      <point x="332" y="586" type="line"/>
      <point x="332" y="88" type="line"/>
      <point x="392" y="88" type="line"/>
      <point x="392" y="295" type="line"/>
      <point x="430" y="295" type="line" smooth="yes"/>
      <point x="440" y="295"/>
      <point x="450" y="295"/>
    </contour>
    <contour>
      <point x="463" y="-67" type="curve" smooth="yes"/>
      <point x="687" y="-67"/>
      <point x="866" y="85"/>
      <point x="866" y="336" type="curve" smooth="yes"/>
      <point x="866" y="587"/>
      <point x="687" y="739"/>
      <point x="463" y="739" type="curve" smooth="yes"/>
      <point x="239" y="739"/>
      <point x="60" y="587"/>
      <point x="60" y="336" type="curve" smooth="yes"/>
      <point x="60" y="85"/>
      <point x="239" y="-67"/>
    </contour>
    <contour>
      <point x="463" y="-6" type="curve" smooth="yes"/>
      <point x="275" y="-6"/>
      <point x="128" y="123"/>
      <point x="128" y="336" type="curve" smooth="yes"/>
      <point x="128" y="549"/>
      <point x="275" y="678"/>
      <point x="463" y="678" type="curve" smooth="yes"/>
      <point x="651" y="678"/>
      <point x="798" y="549"/>
      <point x="798" y="336" type="curve" smooth="yes"/>
      <point x="798" y="123"/>
      <point x="651" y="-6"/>
    </contour>
    <contour>
      <point x="433" y="350" type="curve" smooth="yes"/>
      <point x="392" y="350" type="line"/>
      <point x="392" y="531" type="line"/>
      <point x="433" y="531" type="line" smooth="yes"/>
      <point x="522" y="531"/>
      <point x="568" y="504"/>
      <point x="568" y="442" type="curve" smooth="yes"/>
      <point x="568" y="383"/>
      <point x="522" y="350"/>
    </contour>
  </outline>
</glyph>
<glyph name="macron-beria" format="2">
  <advance width="500"/>
  <unicode hex="00AF"/>
  <note>
macron
</note>
  <anchor x="250" y="720" name="_U"/>
  <outline>
    <contour>
      <point x="65" y="800" type="line"/>
      <point x="65" y="738" type="line"/>
      <point x="435" y="738" type="line"/>
      <point x="435" y="800" type="line"/>
    </contour>
  </outline>
</glyph>
<glyph name="degree" format="2">
  <advance width="392"/>
  <unicode hex="00B0"/>
  <note>
degree
</note>
  <outline>
    <contour>
      <point x="196" y="430" type="curve" smooth="yes"/>
      <point x="146" y="430"/>
      <point x="105" y="472"/>
      <point x="105" y="528" type="curve" smooth="yes"/>
      <point x="105" y="583"/>
      <point x="146" y="626"/>
      <point x="196" y="626" type="curve" smooth="yes"/>
      <point x="246" y="626"/>
      <point x="287" y="583"/>
      <point x="287" y="528" type="curve" smooth="yes"/>
      <point x="287" y="472"/>
      <point x="246" y="430"/>
    </contour>
    <contour>
      <point x="196" y="373" type="curve" smooth="yes"/>
      <point x="281" y="373"/>
      <point x="351" y="440"/>
      <point x="351" y="528" type="curve" smooth="yes"/>
      <point x="351" y="615"/>
      <point x="281" y="683"/>
      <point x="196" y="683" type="curve" smooth="yes"/>
      <point x="110" y="683"/>
      <point x="41" y="615"/>
      <point x="41" y="528" type="curve" smooth="yes"/>
      <point x="41" y="440"/>
      <point x="110" y="373"/>
    </contour>
  </outline>
</glyph>
<glyph name="plusminus" format="2">
  <advance width="608"/>
  <unicode hex="00B1"/>
  <note>
plusminus
</note>
  <outline>
    <contour>
      <point x="73" y="97" type="line"/>
      <point x="73" y="34" type="line"/>
      <point x="525" y="34" type="line"/>
      <point x="525" y="97" type="line"/>
      <point x="337" y="97" type="line"/>
      <point x="337" y="306" type="line"/>
      <point x="535" y="306" type="line"/>
      <point x="535" y="369" type="line"/>
      <point x="337" y="369" type="line"/>
      <point x="337" y="573" type="line"/>
      <point x="271" y="573" type="line"/>
      <point x="271" y="369" type="line"/>
      <point x="73" y="369" type="line"/>
      <point x="73" y="306" type="line"/>
      <point x="271" y="306" type="line"/>
      <point x="271" y="97" type="line"/>
    </contour>
  </outline>
</glyph>
<glyph name="acute-beria" format="2">
  <advance width="500"/>
  <unicode hex="00B4"/>
  <note>
acute
</note>
  <anchor x="250" y="720" name="_U"/>
  <outline>
    <contour>
      <point x="112" y="792" type="line"/>
      <point x="132" y="728" type="line"/>
      <point x="400" y="812" type="line"/>
      <point x="380" y="876" type="line"/>
    </contour>
  </outline>
</glyph>
<glyph name="paragraph" format="2">
  <advance width="629"/>
  <unicode hex="00B6"/>
  <note>
paragraph
</note>
  <outline>
    <contour>
      <point x="297" y="367" type="line"/>
      <point x="297" y="-50" type="line"/>
      <point x="360" y="-50" type="line"/>
      <point x="360" y="699" type="line"/>
      <point x="265" y="699" type="line" smooth="yes"/>
      <point x="116" y="699"/>
      <point x="30" y="635"/>
      <point x="30" y="536" type="curve" smooth="yes"/>
      <point x="30" y="436"/>
      <point x="126" y="367"/>
      <point x="265" y="367" type="curve" smooth="yes"/>
    </contour>
    <contour>
      <point x="428" y="814" type="line"/>
      <point x="428" y="-50" type="line"/>
      <point x="494" y="-50" type="line"/>
      <point x="494" y="754" type="line"/>
      <point x="594" y="754" type="line"/>
      <point x="594" y="814" type="line"/>
    </contour>
  </outline>
</glyph>
<glyph name="guillemotright" format="2">
  <advance width="781"/>
  <unicode hex="00BB"/>
  <note>
guillemotright
</note>
  <outline>
    <contour>
      <point x="93" y="95" type="line"/>
      <point x="133" y="46" type="line"/>
      <point x="474" y="325" type="line"/>
      <point x="474" y="335" type="line"/>
      <point x="133" y="614" type="line"/>
      <point x="92" y="566" type="line"/>
      <point x="378" y="330" type="line"/>
    </contour>
    <contour>
      <point x="336" y="95" type="line"/>
      <point x="376" y="46" type="line"/>
      <point x="717" y="325" type="line"/>
      <point x="717" y="335" type="line"/>
      <point x="376" y="614" type="line"/>
      <point x="335" y="566" type="line"/>
      <point x="621" y="330" type="line"/>
    </contour>
  </outline>
</glyph>
<glyph name="Oi_macron-beria" format="2">
  <advance width="839"/>
  <unicode hex="00D4"/>
  <note>
Ocircumflex
</note>
  <outline>
    <contour>
      <point x="26" y="-72" type="line"/>
      <point x="26" y="-136" type="line"/>
      <point x="208" y="-136" type="line"/>
      <point x="453" y="458" type="line"/>
      <point x="673" y="-73" type="line"/>
      <point x="542" y="-73" type="line"/>
      <point x="542" y="-136" type="line"/>
      <point x="746" y="-136" type="line"/>
      <point x="746" y="-78" type="line"/>
      <point x="487" y="545" type="line"/>
      <point x="487" y="549" type="line"/>
      <point x="703" y="549" type="line"/>
      <point x="703" y="613" type="line"/>
      <point x="487" y="613" type="line"/>
      <point x="487" y="684" type="line"/>
      <point x="419" y="684" type="line"/>
      <point x="419" y="613" type="line"/>
      <point x="209" y="613" type="line"/>
      <point x="209" y="549" type="line"/>
      <point x="419" y="549" type="line"/>
      <point x="419" y="543" type="line"/>
      <point x="164" y="-72" type="line"/>
    </contour>
    <contour>
      <point x="269" y="800" type="line"/>
      <point x="269" y="738" type="line"/>
      <point x="639" y="738" type="line"/>
      <point x="639" y="800" type="line"/>
    </contour>
  </outline>
</glyph>
<glyph name="multiply" format="2">
  <advance width="577"/>
  <unicode hex="00D7"/>
  <note>
multiply
</note>
  <outline>
    <contour>
      <point x="288" y="241" type="line"/>
      <point x="461" y="64" type="line"/>
      <point x="506" y="109" type="line"/>
      <point x="333" y="287" type="line"/>
      <point x="509" y="467" type="line"/>
      <point x="467" y="511" type="line"/>
      <point x="290" y="330" type="line"/>
      <point x="113" y="512" type="line"/>
      <point x="68" y="466" type="line"/>
      <point x="246" y="284" type="line"/>
      <point x="74" y="108" type="line"/>
      <point x="116" y="65" type="line"/>
    </contour>
  </outline>
</glyph>
<glyph name="divide" format="2">
  <advance width="598"/>
  <unicode hex="00F7"/>
  <note>
divide
</note>
  <outline>
    <contour>
      <point x="63" y="248" type="line"/>
      <point x="535" y="248" type="line"/>
      <point x="535" y="312" type="line"/>
      <point x="63" y="312" type="line"/>
    </contour>
    <contour>
      <point x="246" y="108" type="line"/>
      <point x="246" y="-3" type="line"/>
      <point x="357" y="-3" type="line"/>
      <point x="357" y="108" type="line"/>
    </contour>
    <contour>
      <point x="246" y="563" type="line"/>
      <point x="246" y="452" type="line"/>
      <point x="357" y="452" type="line"/>
      <point x="357" y="563" type="line"/>
    </contour>
  </outline>
</glyph>
<glyph name="florin" format="2">
  <advance width="474"/>
  <unicode hex="0192"/>
  <note>
florin
</note>
  <outline>
    <contour>
      <point x="105" y="429" type="line"/>
      <point x="105" y="369" type="line"/>
      <point x="202" y="369" type="line"/>
      <point x="189" y="248"/>
      <point x="180" y="156"/>
      <point x="176" y="117" type="curve" smooth="yes"/>
      <point x="166" y="12"/>
      <point x="151" y="-23"/>
      <point x="121" y="-45" type="curve" smooth="yes"/>
      <point x="90" y="-68"/>
      <point x="54" y="-74"/>
      <point x="6" y="-74" type="curve"/>
      <point x="6" y="-134" type="line"/>
      <point x="69" y="-134"/>
      <point x="121" y="-126"/>
      <point x="165" y="-93" type="curve" smooth="yes"/>
      <point x="210" y="-60"/>
      <point x="231" y="-3"/>
      <point x="243" y="111" type="curve" smooth="yes"/>
      <point x="247" y="151"/>
      <point x="259" y="244"/>
      <point x="272" y="369" type="curve"/>
      <point x="398" y="369" type="line"/>
      <point x="398" y="429" type="line"/>
      <point x="278" y="429" type="line"/>
      <point x="283" y="481"/>
      <point x="288" y="538"/>
      <point x="294" y="598" type="curve" smooth="yes"/>
      <point x="302" y="692"/>
      <point x="350" y="702"/>
      <point x="447" y="708" type="curve"/>
      <point x="447" y="768" type="line"/>
      <point x="315" y="763"/>
      <point x="242" y="730"/>
      <point x="228" y="605" type="curve" smooth="yes"/>
      <point x="221" y="542"/>
      <point x="214" y="483"/>
      <point x="208" y="429" type="curve"/>
    </contour>
  </outline>
</glyph>
<glyph name="dot-beria" format="2">
  <advance width="500"/>
  <unicode hex="02D9"/>
  <note>
dotaccent
</note>
  <anchor x="250" y="720" name="_U"/>
  <outline>
    <contour>
      <point x="205" y="828" type="line"/>
      <point x="205" y="738" type="line"/>
      <point x="295" y="738" type="line"/>
      <point x="295" y="828" type="line"/>
    </contour>
  </outline>
</glyph>
<glyph name="grave-beria" format="2">
  <advance width="500"/>
  <unicode hex="0300"/>
  <note>
grave
</note>
  <anchor x="250" y="720" name="_U"/>
  <outline>
    <contour>
      <point x="100" y="812" type="line"/>
      <point x="368" y="728" type="line"/>
      <point x="388" y="792" type="line"/>
      <point x="120" y="876" type="line"/>
    </contour>
  </outline>
</glyph>
<glyph name="endash" format="2">
  <advance width="593"/>
  <unicode hex="2013"/>
  <note>
endash
</note>
  <outline>
    <contour>
      <point x="73" y="248" type="line"/>
      <point x="520" y="248" type="line"/>
      <point x="520" y="312" type="line"/>
      <point x="73" y="312" type="line"/>
    </contour>
  </outline>
</glyph>
<glyph name="emdash" format="2">
  <advance width="669"/>
  <unicode hex="2014"/>
  <note>
emdash
</note>
  <outline>
    <contour>
      <point x="73" y="248" type="line"/>
      <point x="596" y="248" type="line"/>
      <point x="596" y="312" type="line"/>
      <point x="73" y="312" type="line"/>
    </contour>
  </outline>
</glyph>
<glyph name="quoteleft" format="2">
  <advance width="266"/>
  <unicode hex="2018"/>
  <note>
quoteleft
</note>
  <outline>
    <contour>
      <point x="77" y="716" type="line"/>
      <point x="77" y="616" type="line"/>
      <point x="177" y="616" type="line"/>
      <point x="177" y="724" type="line"/>
      <point x="141" y="724" type="line"/>
      <point x="185" y="858" type="line"/>
      <point x="143" y="874" type="line"/>
    </contour>
  </outline>
</glyph>
<glyph name="quoteright" format="2">
  <advance width="266"/>
  <unicode hex="2019"/>
  <note>
quoteright
</note>
  <outline>
    <contour>
      <point x="89" y="864" type="line"/>
      <point x="89" y="756" type="line"/>
      <point x="125" y="756" type="line"/>
      <point x="81" y="622" type="line"/>
      <point x="123" y="606" type="line"/>
      <point x="189" y="764" type="line"/>
      <point x="189" y="864" type="line"/>
    </contour>
  </outline>
</glyph>
<glyph name="quotesinglbase" format="2">
  <advance width="265"/>
  <unicode hex="201A"/>
  <note>
quotesinglbase
</note>
  <outline>
    <contour>
      <point x="81" y="-134" type="line"/>
      <point x="122" y="-150" type="line"/>
      <point x="188" y="8" type="line"/>
      <point x="188" y="108" type="line"/>
      <point x="89" y="108" type="line"/>
      <point x="89" y="0" type="line"/>
      <point x="125" y="0" type="line"/>
    </contour>
  </outline>
</glyph>
<glyph name="quotedblleft" format="2">
  <advance width="416"/>
  <unicode hex="201C"/>
  <note>
quotedblleft
</note>
  <outline>
    <contour>
      <point x="77" y="716" type="line"/>
      <point x="77" y="616" type="line"/>
      <point x="176" y="616" type="line"/>
      <point x="176" y="724" type="line"/>
      <point x="140" y="724" type="line"/>
      <point x="184" y="858" type="line"/>
      <point x="143" y="874" type="line"/>
    </contour>
    <contour>
      <point x="228" y="716" type="line"/>
      <point x="228" y="616" type="line"/>
      <point x="327" y="616" type="line"/>
      <point x="327" y="724" type="line"/>
      <point x="291" y="724" type="line"/>
      <point x="335" y="858" type="line"/>
      <point x="294" y="874" type="line"/>
    </contour>
  </outline>
</glyph>
<glyph name="quotedblright" format="2">
  <advance width="416"/>
  <unicode hex="201D"/>
  <note>
quotedblright
</note>
  <outline>
    <contour>
      <point x="81" y="622" type="line"/>
      <point x="122" y="606" type="line"/>
      <point x="188" y="764" type="line"/>
      <point x="188" y="864" type="line"/>
      <point x="89" y="864" type="line"/>
      <point x="89" y="756" type="line"/>
      <point x="125" y="756" type="line"/>
    </contour>
    <contour>
      <point x="232" y="622" type="line"/>
      <point x="273" y="606" type="line"/>
      <point x="339" y="764" type="line"/>
      <point x="339" y="864" type="line"/>
      <point x="240" y="864" type="line"/>
      <point x="240" y="756" type="line"/>
      <point x="276" y="756" type="line"/>
    </contour>
  </outline>
</glyph>
<glyph name="quotedblbase" format="2">
  <advance width="416"/>
  <unicode hex="201E"/>
  <note>
quotedblbase
</note>
  <outline>
    <contour>
      <point x="81" y="-134" type="line"/>
      <point x="122" y="-150" type="line"/>
      <point x="188" y="8" type="line"/>
      <point x="188" y="108" type="line"/>
      <point x="89" y="108" type="line"/>
      <point x="89" y="0" type="line"/>
      <point x="125" y="0" type="line"/>
    </contour>
    <contour>
      <point x="232" y="-134" type="line"/>
      <point x="273" y="-150" type="line"/>
      <point x="339" y="8" type="line"/>
      <point x="339" y="108" type="line"/>
      <point x="240" y="108" type="line"/>
      <point x="240" y="0" type="line"/>
      <point x="276" y="0" type="line"/>
    </contour>
  </outline>
</glyph>
<glyph name="dagger" format="2">
  <advance width="588"/>
  <unicode hex="2020"/>
  <note>
dagger
</note>
  <outline>
    <contour>
      <point x="68" y="668" type="line"/>
      <point x="68" y="608" type="line"/>
      <point x="261" y="608" type="line"/>
      <point x="261" y="0" type="line"/>
      <point x="327" y="0" type="line"/>
      <point x="327" y="608" type="line"/>
      <point x="520" y="608" type="line"/>
      <point x="520" y="668" type="line"/>
      <point x="327" y="668" type="line"/>
      <point x="327" y="864" type="line"/>
      <point x="261" y="864" type="line"/>
      <point x="261" y="668" type="line"/>
    </contour>
  </outline>
</glyph>
<glyph name="daggerdbl" format="2">
  <advance width="588"/>
  <unicode hex="2021"/>
  <note>
daggerdbl
</note>
  <outline>
    <contour>
      <point x="68" y="668" type="line"/>
      <point x="68" y="609" type="line"/>
      <point x="261" y="609" type="line"/>
      <point x="261" y="469" type="line"/>
      <point x="68" y="469" type="line"/>
      <point x="68" y="410" type="line"/>
      <point x="261" y="410" type="line"/>
      <point x="261" y="0" type="line"/>
      <point x="327" y="0" type="line"/>
      <point x="327" y="410" type="line"/>
      <point x="520" y="410" type="line"/>
      <point x="520" y="469" type="line"/>
      <point x="327" y="469" type="line"/>
      <point x="327" y="609" type="line"/>
      <point x="520" y="609" type="line"/>
      <point x="520" y="668" type="line"/>
      <point x="327" y="668" type="line"/>
      <point x="327" y="864" type="line"/>
      <point x="261" y="864" type="line"/>
      <point x="261" y="668" type="line"/>
    </contour>
  </outline>
</glyph>
<glyph name="bullet" format="2">
  <advance width="508"/>
  <unicode hex="2022"/>
  <note>
bullet
</note>
  <outline>
    <contour>
      <point x="129" y="418" type="line"/>
      <point x="129" y="166" type="line"/>
      <point x="378" y="166" type="line"/>
      <point x="378" y="418" type="line"/>
    </contour>
  </outline>
</glyph>
<glyph name="ellipsis" format="2">
  <advance width="644"/>
  <unicode hex="2026"/>
  <note>
ellipsis
</note>
  <outline>
    <contour>
      <point x="276" y="102" type="line"/>
      <point x="276" y="0" type="line"/>
      <point x="368" y="0" type="line"/>
      <point x="368" y="102" type="line"/>
    </contour>
    <contour>
      <point x="483" y="102" type="line"/>
      <point x="483" y="0" type="line"/>
      <point x="576" y="0" type="line"/>
      <point x="576" y="102" type="line"/>
    </contour>
    <contour>
      <point x="68" y="102" type="line"/>
      <point x="68" y="0" type="line"/>
      <point x="161" y="0" type="line"/>
      <point x="161" y="102" type="line"/>
    </contour>
  </outline>
</glyph>
<glyph name="guilsinglleft" format="2">
  <advance width="538"/>
  <unicode hex="2039"/>
  <note>
guilsinglleft
</note>
  <outline>
    <contour>
      <point x="64" y="325" type="line"/>
      <point x="405" y="46" type="line"/>
      <point x="446" y="94" type="line"/>
      <point x="160" y="330" type="line"/>
      <point x="445" y="565" type="line"/>
      <point x="405" y="614" type="line"/>
      <point x="64" y="335" type="line"/>
    </contour>
  </outline>
</glyph>
<glyph name="guilsinglright" format="2">
  <advance width="538"/>
  <unicode hex="203A"/>
  <note>
guilsinglright
</note>
  <outline>
    <contour>
      <point x="93" y="95" type="line"/>
      <point x="133" y="46" type="line"/>
      <point x="474" y="325" type="line"/>
      <point x="474" y="335" type="line"/>
      <point x="133" y="614" type="line"/>
      <point x="92" y="566" type="line"/>
      <point x="378" y="330" type="line"/>
    </contour>
  </outline>
</glyph>
<glyph name="fraction" format="2">
  <advance width="587"/>
  <unicode hex="2044"/>
  <note>
fraction
</note>
  <outline>
    <contour>
      <point x="-75" y="-117" type="line"/>
      <point x="-22" y="-158" type="line"/>
      <point x="602" y="690" type="line"/>
      <point x="549" y="731" type="line"/>
    </contour>
  </outline>
</glyph>
<glyph name="Euro" format="2">
  <advance width="581"/>
  <unicode hex="20AC"/>
  <note>
Euro
</note>
  <outline>
    <contour>
      <point x="66" y="457" type="line"/>
      <point x="66" y="395" type="line"/>
      <point x="157" y="395" type="line"/>
      <point x="156" y="376"/>
      <point x="156" y="355"/>
      <point x="156" y="334" type="curve" smooth="yes"/>
      <point x="156" y="311"/>
      <point x="156" y="290"/>
      <point x="157" y="270" type="curve"/>
      <point x="66" y="270" type="line"/>
      <point x="66" y="208" type="line"/>
      <point x="164" y="208" type="line"/>
      <point x="189" y="35"/>
      <point x="276" y="0"/>
      <point x="418" y="0" type="curve" smooth="yes"/>
      <point x="520" y="0" type="line"/>
      <point x="520" y="60" type="line"/>
      <point x="402" y="60" type="line" smooth="yes"/>
      <point x="300" y="60"/>
      <point x="247" y="88"/>
      <point x="228" y="208" type="curve"/>
      <point x="428" y="208" type="line"/>
      <point x="428" y="270" type="line"/>
      <point x="221" y="270" type="line"/>
      <point x="220" y="289"/>
      <point x="220" y="311"/>
      <point x="220" y="334" type="curve" smooth="yes"/>
      <point x="220" y="356"/>
      <point x="220" y="376"/>
      <point x="221" y="395" type="curve"/>
      <point x="428" y="395" type="line"/>
      <point x="428" y="457" type="line"/>
      <point x="227" y="457" type="line"/>
      <point x="246" y="579"/>
      <point x="300" y="608"/>
      <point x="402" y="608" type="curve" smooth="yes"/>
      <point x="512" y="608" type="line"/>
      <point x="512" y="668" type="line"/>
      <point x="418" y="668" type="line" smooth="yes"/>
      <point x="275" y="668"/>
      <point x="188" y="632"/>
      <point x="163" y="457" type="curve"/>
    </contour>
  </outline>
</glyph>
<glyph name="trademark" format="2">
  <advance width="650"/>
  <unicode hex="2122"/>
  <note>
trademark
</note>
  <outline>
    <contour>
      <point x="367" y="517" type="line"/>
      <point x="445" y="326" type="line"/>
      <point x="465" y="326" type="line"/>
      <point x="540" y="517" type="line"/>
      <point x="541" y="517" type="line"/>
      <point x="541" y="328" type="line"/>
      <point x="598" y="328" type="line"/>
      <point x="598" y="668" type="line"/>
      <point x="545" y="668" type="line"/>
      <point x="457" y="433" type="line"/>
      <point x="362" y="668" type="line"/>
      <point x="309" y="668" type="line"/>
      <point x="309" y="328" type="line"/>
      <point x="366" y="328" type="line"/>
      <point x="366" y="517" type="line"/>
    </contour>
    <contour>
      <point x="109" y="615" type="line"/>
      <point x="109" y="328" type="line"/>
      <point x="169" y="328" type="line"/>
      <point x="169" y="615" type="line"/>
      <point x="270" y="615" type="line"/>
      <point x="270" y="668" type="line"/>
      <point x="8" y="668" type="line"/>
      <point x="8" y="615" type="line"/>
    </contour>
  </outline>
</glyph>
<glyph name="minus" format="2">
  <advance width="598"/>
  <unicode hex="2212"/>
  <note>
minus
</note>
  <outline>
    <contour>
      <point x="73" y="248" type="line"/>
      <point x="525" y="248" type="line"/>
      <point x="525" y="312" type="line"/>
      <point x="73" y="312" type="line"/>
    </contour>
  </outline>
</glyph>
<glyph name="approxequal" format="2">
  <advance width="576"/>
  <unicode hex="2248"/>
  <note>
approxequal
</note>
  <outline>
    <contour>
      <point x="51" y="379" type="curve"/>
      <point x="101" y="342" type="line"/>
      <point x="121" y="372"/>
      <point x="151" y="410"/>
      <point x="192" y="410" type="curve" smooth="yes"/>
      <point x="246" y="410"/>
      <point x="299" y="342"/>
      <point x="382" y="342" type="curve" smooth="yes"/>
      <point x="447" y="342"/>
      <point x="498" y="388"/>
      <point x="525" y="428" type="curve"/>
      <point x="477" y="469" type="line"/>
      <point x="461" y="448"/>
      <point x="427" y="407"/>
      <point x="383" y="407" type="curve" smooth="yes"/>
      <point x="310" y="407"/>
      <point x="270" y="474"/>
      <point x="189" y="474" type="curve" smooth="yes"/>
      <point x="128" y="474"/>
      <point x="82" y="431"/>
    </contour>
    <contour>
      <point x="51" y="209" type="curve"/>
      <point x="101" y="172" type="line"/>
      <point x="121" y="202"/>
      <point x="151" y="240"/>
      <point x="192" y="240" type="curve" smooth="yes"/>
      <point x="246" y="240"/>
      <point x="299" y="172"/>
      <point x="382" y="172" type="curve" smooth="yes"/>
      <point x="447" y="172"/>
      <point x="498" y="218"/>
      <point x="525" y="258" type="curve"/>
      <point x="477" y="299" type="line"/>
      <point x="461" y="278"/>
      <point x="427" y="237"/>
      <point x="383" y="237" type="curve" smooth="yes"/>
      <point x="310" y="237"/>
      <point x="270" y="304"/>
      <point x="189" y="304" type="curve" smooth="yes"/>
      <point x="128" y="304"/>
      <point x="82" y="261"/>
    </contour>
  </outline>
</glyph>
<glyph name="Effi-beria" format="2">
  <advance width="786"/>
  <unicode hex="16EA4"/>
  <note>
F
</note>
  <outline>
    <contour>
      <point x="476" y="-136" type="curve" smooth="yes"/>
      <point x="648" y="-136" type="line"/>
      <point x="648" y="668" type="line"/>
      <point x="476" y="668" type="line" smooth="yes"/>
      <point x="266" y="668"/>
      <point x="88" y="607"/>
      <point x="88" y="265" type="curve" smooth="yes"/>
      <point x="88" y="-77"/>
      <point x="266" y="-136"/>
    </contour>
    <contour>
      <point x="156" y="265" type="curve" smooth="yes"/>
      <point x="156" y="552"/>
      <point x="290" y="605"/>
      <point x="481" y="605" type="curve" smooth="yes"/>
      <point x="582" y="605" type="line"/>
      <point x="582" y="-73" type="line"/>
      <point x="481" y="-73" type="line" smooth="yes"/>
      <point x="290" y="-73"/>
      <point x="156" y="-22"/>
    </contour>
    <contour>
      <point x="341" y="220" type="line"/>
      <point x="424" y="220" type="line"/>
      <point x="424" y="311" type="line"/>
      <point x="341" y="311" type="line"/>
    </contour>
  </outline>
</glyph>
<glyph name="Gay-beria" format="2">
  <advance width="845"/>
  <unicode hex="16EA5"/>
  <note>
G
</note>
  <outline>
    <contour>
      <point x="387" y="68" type="curve"/>
      <point x="387" y="-136" type="line"/>
      <point x="455" y="-136" type="line"/>
      <point x="455" y="66" type="line"/>
      <point x="560" y="15"/>
      <point x="667" y="-24"/>
      <point x="743" y="-51" type="curve"/>
      <point x="765" y="10" type="line"/>
      <point x="693" y="36"/>
      <point x="589" y="74"/>
      <point x="488" y="123" type="curve"/>
      <point x="629" y="207"/>
      <point x="746" y="315"/>
      <point x="746" y="442" type="curve" smooth="yes"/>
      <point x="746" y="576"/>
      <point x="628" y="685"/>
      <point x="420" y="685" type="curve" smooth="yes"/>
      <point x="212" y="685"/>
      <point x="94" y="576"/>
      <point x="94" y="442" type="curve" smooth="yes"/>
      <point x="94" y="311"/>
      <point x="210" y="204"/>
      <point x="351" y="121" type="curve"/>
      <point x="252" y="73"/>
      <point x="149" y="36"/>
      <point x="78" y="10" type="curve"/>
      <point x="100" y="-51" type="line"/>
      <point x="176" y="-24"/>
      <point x="282" y="16"/>
    </contour>
    <contour>
      <point x="162" y="442" type="curve" smooth="yes"/>
      <point x="162" y="541"/>
      <point x="255" y="622"/>
      <point x="420" y="622" type="curve" smooth="yes"/>
      <point x="585" y="622"/>
      <point x="678" y="541"/>
      <point x="678" y="442" type="curve" smooth="yes"/>
      <point x="678" y="330"/>
      <point x="559" y="233"/>
      <point x="420" y="157" type="curve"/>
      <point x="281" y="233"/>
      <point x="162" y="330"/>
    </contour>
  </outline>
</glyph>
<glyph name="Hay-beria" format="2">
  <advance width="850"/>
  <unicode hex="16EA6"/>
  <note>
H
</note>
  <outline>
    <contour>
      <point x="138" y="668" type="line"/>
      <point x="138" y="-136" type="line"/>
      <point x="206" y="-136" type="line"/>
      <point x="206" y="604" type="line"/>
      <point x="644" y="604" type="line"/>
      <point x="644" y="-136" type="line"/>
      <point x="712" y="-136" type="line"/>
      <point x="712" y="668" type="line"/>
    </contour>
  </outline>
</glyph>
<glyph name="Enni-beria" format="2">
  <advance width="785"/>
  <unicode hex="16EAC"/>
  <note>
N
</note>
  <outline>
    <contour>
      <point x="392" y="-151" type="curve" smooth="yes"/>
      <point x="565" y="-151"/>
      <point x="707" y="-62"/>
      <point x="707" y="87" type="curve" smooth="yes"/>
      <point x="707" y="225"/>
      <point x="583" y="313"/>
      <point x="426" y="324" type="curve"/>
      <point x="426" y="604" type="line"/>
      <point x="564" y="604" type="line"/>
      <point x="564" y="668" type="line"/>
      <point x="220" y="668" type="line"/>
      <point x="220" y="604" type="line"/>
      <point x="359" y="604" type="line"/>
      <point x="359" y="324" type="line"/>
      <point x="202" y="313"/>
      <point x="78" y="225"/>
      <point x="78" y="87" type="curve" smooth="yes"/>
      <point x="78" y="-62"/>
      <point x="219" y="-151"/>
    </contour>
    <contour>
      <point x="359" y="262" type="curve"/>
      <point x="359" y="-88" type="line"/>
      <point x="235" y="-78"/>
      <point x="145" y="-15"/>
      <point x="145" y="87" type="curve" smooth="yes"/>
      <point x="145" y="189"/>
      <point x="235" y="252"/>
    </contour>
    <contour>
      <point x="425" y="-88" type="curve"/>
      <point x="425" y="262" type="line"/>
      <point x="548" y="252"/>
      <point x="640" y="189"/>
      <point x="640" y="87" type="curve" smooth="yes"/>
      <point x="640" y="-15"/>
      <point x="548" y="-78"/>
    </contour>
  </outline>
</glyph>
<glyph name="Pi-beria" format="2">
  <advance width="844"/>
  <unicode hex="16EAE"/>
  <note>
P
</note>
  <outline>
    <contour>
      <point x="262" y="-72" type="line"/>
      <point x="262" y="-136" type="line"/>
      <point x="599" y="-136" type="line"/>
      <point x="599" y="-72" type="line"/>
      <point x="472" y="-72" type="line"/>
      <point x="795" y="647" type="line"/>
      <point x="738" y="674" type="line"/>
      <point x="604" y="377" type="line"/>
      <point x="562" y="395"/>
      <point x="508" y="409"/>
      <point x="457" y="412" type="curve"/>
      <point x="457" y="676" type="line"/>
      <point x="391" y="676" type="line"/>
      <point x="391" y="410" type="line"/>
      <point x="342" y="405"/>
      <point x="299" y="392"/>
      <point x="252" y="373" type="curve"/>
      <point x="108" y="675" type="line"/>
      <point x="49" y="646" type="line"/>
      <point x="391" y="-72" type="line"/>
    </contour>
    <contour>
      <point x="580" y="322" type="curve"/>
      <point x="432" y="-6" type="line"/>
      <point x="278" y="318" type="line"/>
      <point x="328" y="339"/>
      <point x="380" y="352"/>
      <point x="432" y="352" type="curve" smooth="yes"/>
      <point x="484" y="352"/>
      <point x="538" y="340"/>
    </contour>
  </outline>
</glyph>
<glyph name="Tai-beria" format="2">
  <advance width="710"/>
  <unicode hex="16EB3"/>
  <note>
T
</note>
  <outline>
    <contour>
      <point x="203" y="-77" type="line"/>
      <point x="203" y="-136" type="line"/>
      <point x="574" y="-136" type="line"/>
      <point x="574" y="-72" type="line"/>
      <point x="280" y="-72" type="line"/>
      <point x="635" y="654" type="line"/>
      <point x="575" y="684" type="line"/>
      <point x="405" y="337" type="line"/>
      <point x="90" y="674" type="line"/>
      <point x="39" y="626" type="line"/>
      <point x="372" y="268" type="line"/>
    </contour>
  </outline>
</glyph>
<glyph name="Gna-beria" format="2">
  <advance width="835"/>
  <unicode hex="16EB6"/>
  <note>
Z
</note>
  <outline>
    <contour>
      <point x="356" y="517" type="line"/>
      <point x="593" y="-136" type="line"/>
      <point x="781" y="-136" type="line"/>
      <point x="781" y="-72" type="line"/>
      <point x="642" y="-72" type="line"/>
      <point x="397" y="604" type="line"/>
      <point x="677" y="604" type="line"/>
      <point x="677" y="668" type="line"/>
      <point x="342" y="668" type="line"/>
      <point x="72" y="-78" type="line"/>
      <point x="72" y="-136" type="line"/>
      <point x="275" y="-136" type="line"/>
      <point x="275" y="-73" type="line"/>
      <point x="144" y="-73" type="line"/>
    </contour>
  </outline>
</glyph>
<glyph name="Yay-beria" format="2">
  <advance width="717"/>
  <unicode hex="16EB7"/>
  <note>
Y
</note>
  <outline>
    <contour>
      <point x="112" y="316" type="line"/>
      <point x="112" y="254" type="line"/>
      <point x="245" y="254" type="line"/>
      <point x="171" y="208"/>
      <point x="111" y="133"/>
      <point x="111" y="46" type="curve" smooth="yes"/>
      <point x="111" y="-72"/>
      <point x="210" y="-151"/>
      <point x="358" y="-151" type="curve" smooth="yes"/>
      <point x="507" y="-151"/>
      <point x="606" y="-72"/>
      <point x="606" y="46" type="curve" smooth="yes"/>
      <point x="606" y="133"/>
      <point x="546" y="208"/>
      <point x="471" y="254" type="curve"/>
      <point x="604" y="254" type="line"/>
      <point x="604" y="316" type="line"/>
      <point x="459" y="316" type="line"/>
      <point x="528" y="358"/>
      <point x="585" y="424"/>
      <point x="585" y="507" type="curve" smooth="yes"/>
      <point x="585" y="618"/>
      <point x="499" y="688"/>
      <point x="358" y="688" type="curve" smooth="yes"/>
      <point x="217" y="688"/>
      <point x="131" y="618"/>
      <point x="131" y="507" type="curve" smooth="yes"/>
      <point x="131" y="424"/>
      <point x="188" y="358"/>
      <point x="257" y="316" type="curve"/>
    </contour>
    <contour>
      <point x="358" y="-88" type="curve" smooth="yes"/>
      <point x="251" y="-88"/>
      <point x="179" y="-34"/>
      <point x="179" y="47" type="curve" smooth="yes"/>
      <point x="179" y="141"/>
      <point x="271" y="227"/>
      <point x="358" y="256" type="curve"/>
      <point x="444" y="226"/>
      <point x="538" y="140"/>
      <point x="538" y="46" type="curve" smooth="yes"/>
      <point x="538" y="-35"/>
      <point x="465" y="-88"/>
    </contour>
    <contour>
      <point x="358" y="320" type="curve"/>
      <point x="319" y="330"/>
      <point x="198" y="411"/>
      <point x="198" y="508" type="curve" smooth="yes"/>
      <point x="198" y="579"/>
      <point x="261" y="625"/>
      <point x="358" y="625" type="curve" smooth="yes"/>
      <point x="455" y="625"/>
      <point x="518" y="579"/>
      <point x="518" y="508" type="curve" smooth="yes"/>
      <point x="518" y="411"/>
      <point x="397" y="330"/>
    </contour>
  </outline>
</glyph>
<glyph name="iyi-beria" format="2">
  <advance width="738"/>
  <unicode hex="16EC7"/>
  <note>
i
</note>
  <anchor x="380" y="720" name="U"/>
  <outline>
    <contour>
      <point x="33" y="54" type="curve"/>
      <point x="55" y="-7" type="line"/>
      <point x="213" y="36"/>
      <point x="326" y="130"/>
      <point x="383" y="245" type="curve"/>
      <point x="400" y="205"/>
      <point x="434" y="172"/>
      <point x="501" y="172" type="curve" smooth="yes"/>
      <point x="684" y="172" type="line"/>
      <point x="684" y="232" type="line"/>
      <point x="514" y="232" type="line" smooth="yes"/>
      <point x="461" y="232"/>
      <point x="425" y="268"/>
      <point x="425" y="346" type="curve" smooth="yes"/>
      <point x="425" y="668" type="line"/>
      <point x="361" y="668" type="line"/>
      <point x="361" y="437" type="line" smooth="yes"/>
      <point x="361" y="252"/>
      <point x="247" y="116"/>
    </contour>
    <contour>
      <point x="418" y="82" type="line"/>
      <point x="418" y="0" type="line"/>
      <point x="499" y="0" type="line"/>
      <point x="499" y="82" type="line"/>
    </contour>
  </outline>
</glyph>
<glyph name="oi-beria" format="2">
  <advance width="716"/>
  <unicode hex="16ECD"/>
  <note>
o
</note>
  <anchor x="393" y="720" name="U"/>
  <outline>
    <contour>
      <point x="21" y="60" type="line"/>
      <point x="21" y="0" type="line"/>
      <point x="188" y="0" type="line"/>
      <point x="391" y="568" type="line"/>
      <point x="571" y="58" type="line"/>
      <point x="453" y="58" type="line"/>
      <point x="453" y="0" type="line"/>
      <point x="641" y="0" type="line"/>
      <point x="641" y="49" type="line"/>
      <point x="423" y="668" type="line"/>
      <point x="362" y="668" type="line"/>
      <point x="144" y="60" type="line"/>
    </contour>
  </outline>
</glyph>
<glyph name="way-beria" format="2">
  <advance width="771"/>
  <unicode hex="16ED4"/>
  <note>
w
</note>
  <outline>
    <contour>
      <point x="127" y="46" type="curve"/>
      <point x="149" y="-13" type="line"/>
      <point x="262" y="22"/>
      <point x="350" y="90"/>
      <point x="386" y="174" type="curve"/>
      <point x="422" y="90"/>
      <point x="510" y="23"/>
      <point x="623" y="-12" type="curve"/>
      <point x="645" y="46" type="line"/>
      <point x="507" y="89"/>
      <point x="418" y="179"/>
      <point x="418" y="299" type="curve" smooth="yes"/>
      <point x="418" y="419"/>
      <point x="540" y="491"/>
      <point x="676" y="515" type="curve" smooth="yes"/>
      <point x="694" y="518"/>
      <point x="706" y="520"/>
      <point x="724" y="522" type="curve"/>
      <point x="714" y="587" type="line"/>
      <point x="693" y="584"/>
      <point x="681" y="582"/>
      <point x="665" y="579" type="curve" smooth="yes"/>
      <point x="564" y="560"/>
      <point x="470" y="515"/>
      <point x="418" y="453" type="curve"/>
      <point x="418" y="675" type="line"/>
      <point x="355" y="675" type="line"/>
      <point x="355" y="454" type="line"/>
      <point x="301" y="517"/>
      <point x="208" y="560"/>
      <point x="107" y="579" type="curve" smooth="yes"/>
      <point x="91" y="582"/>
      <point x="76" y="585"/>
      <point x="58" y="587" type="curve"/>
      <point x="47" y="523" type="line"/>
      <point x="65" y="521"/>
      <point x="77" y="519"/>
      <point x="95" y="516" type="curve" smooth="yes"/>
      <point x="234" y="491"/>
      <point x="354" y="419"/>
      <point x="354" y="299" type="curve" smooth="yes"/>
      <point x="354" y="179"/>
      <point x="265" y="89"/>
    </contour>
  </outline>
</glyph>
<glyph name="nay-beria" format="2">
  <advance width="700"/>
  <unicode hex="16ED5"/>
  <note>
x
</note>
  <outline>
    <contour>
      <point x="426" y="-5" type="curve" smooth="yes"/>
      <point x="530" y="-5" type="line" smooth="yes"/>
      <point x="591" y="-5"/>
      <point x="623" y="39"/>
      <point x="623" y="100" type="curve" smooth="yes"/>
      <point x="623" y="210" type="line" smooth="yes"/>
      <point x="623" y="335"/>
      <point x="536" y="401"/>
      <point x="413" y="423" type="curve"/>
      <point x="449" y="448"/>
      <point x="476" y="490"/>
      <point x="474" y="543" type="curve" smooth="yes"/>
      <point x="471" y="646"/>
      <point x="387" y="668"/>
      <point x="287" y="668" type="curve" smooth="yes"/>
      <point x="122" y="668" type="line"/>
      <point x="122" y="0" type="line"/>
      <point x="185" y="0" type="line"/>
      <point x="185" y="374" type="line"/>
      <point x="308" y="374" type="line" smooth="yes"/>
      <point x="448" y="374"/>
      <point x="560" y="332"/>
      <point x="560" y="208" type="curve" smooth="yes"/>
      <point x="560" y="97" type="line" smooth="yes"/>
      <point x="560" y="71"/>
      <point x="546" y="53"/>
      <point x="524" y="53" type="curve" smooth="yes"/>
      <point x="436" y="53" type="line" smooth="yes"/>
      <point x="413" y="53"/>
      <point x="397" y="71"/>
      <point x="397" y="97" type="curve" smooth="yes"/>
      <point x="397" y="190" type="line"/>
      <point x="334" y="190" type="line"/>
      <point x="334" y="87" type="line" smooth="yes"/>
      <point x="334" y="26"/>
      <point x="364" y="-5"/>
    </contour>
    <contour>
      <point x="184" y="431" type="line"/>
      <point x="184" y="610" type="line"/>
      <point x="283" y="610" type="line" smooth="yes"/>
      <point x="367" y="610"/>
      <point x="408" y="592"/>
      <point x="408" y="534" type="curve" smooth="yes"/>
      <point x="408" y="476"/>
      <point x="349" y="431"/>
      <point x="284" y="431" type="curve" smooth="yes"/>
    </contour>
  </outline>
</glyph>
<glyph name="gna-beria" format="2">
  <advance width="649"/>
  <unicode hex="16ED6"/>
  <note>
z
</note>
  <outline>
    <contour>
      <point x="399" y="-5" type="curve" smooth="yes"/>
      <point x="462" y="-5" type="line" smooth="yes"/>
      <point x="523" y="-5"/>
      <point x="557" y="39"/>
      <point x="557" y="100" type="curve" smooth="yes"/>
      <point x="557" y="259" type="line" smooth="yes"/>
      <point x="557" y="334"/>
      <point x="507" y="381"/>
      <point x="434" y="381" type="curve" smooth="yes"/>
      <point x="186" y="381" type="line"/>
      <point x="186" y="608" type="line"/>
      <point x="399" y="608" type="line"/>
      <point x="399" y="668" type="line"/>
      <point x="122" y="668" type="line"/>
      <point x="122" y="0" type="line"/>
      <point x="186" y="0" type="line"/>
      <point x="186" y="322" type="line"/>
      <point x="429" y="322" type="line" smooth="yes"/>
      <point x="467" y="322"/>
      <point x="494" y="294"/>
      <point x="494" y="257" type="curve" smooth="yes"/>
      <point x="494" y="97" type="line" smooth="yes"/>
      <point x="494" y="71"/>
      <point x="480" y="54"/>
      <point x="458" y="54" type="curve" smooth="yes"/>
      <point x="407" y="54" type="line" smooth="yes"/>
      <point x="384" y="54"/>
      <point x="368" y="71"/>
      <point x="368" y="97" type="curve" smooth="yes"/>
      <point x="368" y="185" type="line"/>
      <point x="305" y="185" type="line"/>
      <point x="305" y="89" type="line" smooth="yes"/>
      <point x="305" y="28"/>
      <point x="337" y="-5"/>
    </contour>
  </outline>
</glyph>
<glyph name="uy-beria" format="2">
  <advance width="601"/>
  <unicode hex="16ED8"/>
  <note>
u
</note>
  <anchor x="237" y="720" name="U"/>
  <outline>
    <contour>
      <point x="173" y="0" type="line"/>
      <point x="256" y="0" type="line" smooth="yes"/>
      <point x="416" y="0"/>
      <point x="531" y="79"/>
      <point x="531" y="194" type="curve" smooth="yes"/>
      <point x="531" y="308"/>
      <point x="416" y="390"/>
      <point x="256" y="390" type="curve" smooth="yes"/>
      <point x="237" y="390" type="line"/>
      <point x="237" y="668" type="line"/>
      <point x="40" y="668" type="line"/>
      <point x="40" y="608" type="line"/>
      <point x="173" y="608" type="line"/>
    </contour>
    <contour>
      <point x="237" y="331" type="line"/>
      <point x="259" y="331" type="line" smooth="yes"/>
      <point x="381" y="331"/>
      <point x="466" y="277"/>
      <point x="466" y="194" type="curve" smooth="yes"/>
      <point x="466" y="110"/>
      <point x="381" y="59"/>
      <point x="259" y="59" type="curve" smooth="yes"/>
      <point x="237" y="59" type="line"/>
    </contour>
  </outline>
</glyph>
<glyph name="Ey-beria.alt" format="2">
  <advance width="757"/>
  <note>
E
</note>
  <anchor x="402" y="720" name="U"/>
  <outline>
    <contour>
      <point x="347" y="-73" type="line"/>
      <point x="347" y="-136" type="line"/>
      <point x="615" y="-136" type="line"/>
      <point x="615" y="-73" type="line"/>
      <point x="535" y="-73" type="line"/>
      <point x="535" y="150" type="line"/>
      <point x="418" y="150" type="line" smooth="yes"/>
      <point x="263" y="150"/>
      <point x="140" y="228"/>
      <point x="140" y="389" type="curve" smooth="yes"/>
      <point x="140" y="547"/>
      <point x="260" y="622"/>
      <point x="412" y="622" type="curve" smooth="yes"/>
      <point x="504" y="622"/>
      <point x="582" y="595"/>
      <point x="654" y="543" type="curve"/>
      <point x="689" y="600" type="line"/>
      <point x="610" y="655"/>
      <point x="525" y="685"/>
      <point x="410" y="685" type="curve" smooth="yes"/>
      <point x="222" y="685"/>
      <point x="72" y="584"/>
      <point x="72" y="389" type="curve" smooth="yes"/>
      <point x="72" y="191"/>
      <point x="225" y="87"/>
      <point x="416" y="87" type="curve" smooth="yes"/>
      <point x="468" y="87" type="line"/>
      <point x="468" y="-73" type="line"/>
    </contour>
  </outline>
</glyph>
<glyph name="Iyi-beria.alt" format="2">
  <advance width="887"/>
  <note>
I
</note>
  <anchor x="453" y="720" name="U"/>
  <outline>
    <contour>
      <point x="281" y="156" type="curve" smooth="yes"/>
      <point x="200" y="156"/>
      <point x="135" y="199"/>
      <point x="135" y="379" type="curve" smooth="yes"/>
      <point x="135" y="565"/>
      <point x="215" y="590"/>
      <point x="304" y="627" type="curve"/>
      <point x="278" y="685" type="line"/>
      <point x="167" y="639"/>
      <point x="68" y="608"/>
      <point x="68" y="379" type="curve" smooth="yes"/>
      <point x="68" y="148"/>
      <point x="163" y="92"/>
      <point x="281" y="92" type="curve" smooth="yes"/>
      <point x="466" y="92"/>
      <point x="571" y="297"/>
      <point x="621" y="426" type="curve"/>
      <point x="622" y="426" type="line"/>
      <point x="622" y="140" type="line"/>
      <point x="558" y="140" type="line"/>
      <point x="558" y="77" type="line"/>
      <point x="622" y="77" type="line"/>
      <point x="622" y="-73" type="line"/>
      <point x="495" y="-73" type="line"/>
      <point x="495" y="-136" type="line"/>
      <point x="814" y="-136" type="line"/>
      <point x="814" y="-73" type="line"/>
      <point x="688" y="-73" type="line"/>
      <point x="688" y="77" type="line"/>
      <point x="753" y="77" type="line"/>
      <point x="753" y="140" type="line"/>
      <point x="688" y="140" type="line"/>
      <point x="688" y="668" type="line"/>
      <point x="621" y="668" type="line"/>
      <point x="611" y="566"/>
      <point x="497" y="156"/>
    </contour>
  </outline>
</glyph>
<glyph name="Key-beria.alt" format="2">
  <advance width="788"/>
  <note>
K
</note>
  <outline>
    <contour>
      <point x="418" y="-156" type="curve" smooth="yes"/>
      <point x="582" y="-156"/>
      <point x="710" y="-72"/>
      <point x="710" y="86" type="curve" smooth="yes"/>
      <point x="710" y="232"/>
      <point x="587" y="312"/>
      <point x="433" y="321" type="curve"/>
      <point x="433" y="604" type="line"/>
      <point x="564" y="604" type="line"/>
      <point x="564" y="668" type="line"/>
      <point x="235" y="668" type="line"/>
      <point x="235" y="604" type="line"/>
      <point x="365" y="604" type="line"/>
      <point x="365" y="259" type="line"/>
      <point x="403" y="259" type="line" smooth="yes"/>
      <point x="534" y="258"/>
      <point x="641" y="200"/>
      <point x="641" y="85" type="curve" smooth="yes"/>
      <point x="641" y="-33"/>
      <point x="543" y="-93"/>
      <point x="417" y="-93" type="curve" smooth="yes"/>
      <point x="273" y="-93"/>
      <point x="163" y="-18"/>
      <point x="143" y="103" type="curve"/>
      <point x="74" y="88" type="line"/>
      <point x="101" y="-63"/>
      <point x="237" y="-156"/>
    </contour>
  </outline>
</glyph>
<glyph name="chei-beria.alt" format="2">
  <advance width="601"/>
  <note>
s
</note>
  <outline>
    <contour>
      <point x="175" y="668" type="line"/>
      <point x="175" y="609" type="line"/>
      <point x="314" y="609" type="line"/>
      <point x="314" y="444" type="line"/>
      <point x="195" y="444" type="line"/>
      <point x="195" y="385" type="line"/>
      <point x="314" y="385" type="line"/>
      <point x="314" y="126" type="line" smooth="yes"/>
      <point x="314" y="89"/>
      <point x="287" y="60"/>
      <point x="251" y="60" type="curve" smooth="yes"/>
      <point x="69" y="60" type="line"/>
      <point x="69" y="0" type="line"/>
      <point x="255" y="0" type="line" smooth="yes"/>
      <point x="328" y="0"/>
      <point x="378" y="47"/>
      <point x="378" y="122" type="curve" smooth="yes"/>
      <point x="378" y="385" type="line"/>
      <point x="497" y="385" type="line"/>
      <point x="497" y="444" type="line"/>
      <point x="378" y="444" type="line"/>
      <point x="378" y="609" type="line"/>
      <point x="517" y="609" type="line"/>
      <point x="517" y="668" type="line"/>
    </contour>
  </outline>
</glyph>
<glyph name="emmi-beria.alt" format="2">
  <advance width="735"/>
  <note>
m
</note>
  <outline>
    <contour>
      <point x="426" y="507" type="curve"/>
      <point x="586" y="250" type="line"/>
      <point x="640" y="286" type="line"/>
      <point x="480" y="543" type="line"/>
      <point x="536" y="577"/>
      <point x="593" y="601"/>
      <point x="653" y="620" type="curve"/>
      <point x="634" y="678" type="line"/>
      <point x="504" y="638"/>
      <point x="380" y="565"/>
      <point x="277" y="459" type="curve" smooth="yes"/>
      <point x="113" y="291"/>
      <point x="51" y="57"/>
      <point x="36" y="-3" type="curve"/>
      <point x="97" y="-19" type="line"/>
      <point x="111" y="38"/>
      <point x="172" y="263"/>
      <point x="323" y="418" type="curve" smooth="yes"/>
      <point x="355" y="451"/>
      <point x="390" y="480"/>
    </contour>
  </outline>
</glyph>
<glyph name="key-beria.alt" format="2">
  <advance width="647"/>
  <note>
k
</note>
  <outline>
    <contour>
      <point x="330" y="-11" type="curve" smooth="yes"/>
      <point x="482" y="-11"/>
      <point x="571" y="73"/>
      <point x="571" y="207" type="curve" smooth="yes"/>
      <point x="571" y="352"/>
      <point x="462" y="419"/>
      <point x="313" y="450" type="curve" smooth="yes"/>
      <point x="294" y="454"/>
      <point x="272" y="459"/>
      <point x="248" y="463" type="curve"/>
      <point x="348" y="660" type="line"/>
      <point x="291" y="689" type="line"/>
      <point x="176" y="458" type="line"/>
      <point x="176" y="410" type="line"/>
      <point x="259" y="401"/>
      <point x="276" y="397"/>
      <point x="302" y="392" type="curve" smooth="yes"/>
      <point x="422" y="368"/>
      <point x="505" y="313"/>
      <point x="505" y="207" type="curve" smooth="yes"/>
      <point x="505" y="107"/>
      <point x="440" y="48"/>
      <point x="330" y="48" type="curve" smooth="yes"/>
      <point x="220" y="48"/>
      <point x="141" y="94"/>
      <point x="141" y="202" type="curve"/>
      <point x="76" y="202" type="line"/>
      <point x="76" y="53"/>
      <point x="182" y="-11"/>
    </contour>
  </outline>
</glyph>
<glyph name="placeholder" format="2">
  <advance width="940"/>
  <outline>
    <contour>
      <point x="261" y="65" type="line"/>
      <point x="298" y="37" type="line"/>
      <point x="469" y="277" type="line"/>
      <point x="643" y="37" type="line"/>
      <point x="682" y="67" type="line"/>
      <point x="500" y="318" type="line"/>
      <point x="683" y="573" type="line"/>
      <point x="683" y="618" type="line"/>
      <point x="255" y="618" type="line"/>
      <point x="255" y="573" type="line"/>
      <point x="441" y="317" type="line"/>
    </contour>
    <contour>
      <point x="626" y="573" type="line"/>
      <point x="472" y="358" type="line"/>
      <point x="317" y="573" type="line"/>
    </contour>
    <contour>
      <point x="90" y="659" type="line"/>
      <point x="130" y="659" type="line"/>
      <point x="130" y="739" type="line"/>
      <point x="210" y="739" type="line"/>
      <point x="210" y="779" type="line"/>
      <point x="90" y="779" type="line"/>
    </contour>
    <contour>
      <point x="90" y="419" type="line"/>
      <point x="130" y="419" type="line"/>
      <point x="130" y="499" type="line"/>
      <point x="90" y="499" type="line"/>
    </contour>
    <contour>
      <point x="210" y="-101" type="line"/>
      <point x="210" y="-61" type="line"/>
      <point x="130" y="-61" type="line"/>
      <point x="130" y="19" type="line"/>
      <point x="90" y="19" type="line"/>
      <point x="90" y="-101" type="line"/>
    </contour>
    <contour>
      <point x="730" y="779" type="line"/>
      <point x="730" y="739" type="line"/>
      <point x="810" y="739" type="line"/>
      <point x="810" y="659" type="line"/>
      <point x="850" y="659" type="line"/>
      <point x="850" y="779" type="line"/>
    </contour>
    <contour>
      <point x="610" y="779" type="line"/>
      <point x="610" y="739" type="line"/>
      <point x="690" y="739" type="line"/>
      <point x="690" y="779" type="line"/>
    </contour>
    <contour>
      <point x="490" y="779" type="line"/>
      <point x="490" y="739" type="line"/>
      <point x="570" y="739" type="line"/>
      <point x="570" y="779" type="line"/>
    </contour>
    <contour>
      <point x="370" y="779" type="line"/>
      <point x="370" y="739" type="line"/>
      <point x="450" y="739" type="line"/>
      <point x="450" y="779" type="line"/>
    </contour>
    <contour>
      <point x="250" y="779" type="line"/>
      <point x="250" y="739" type="line"/>
      <point x="330" y="739" type="line"/>
      <point x="330" y="779" type="line"/>
    </contour>
    <contour>
      <point x="90" y="539" type="line"/>
      <point x="130" y="539" type="line"/>
      <point x="130" y="619" type="line"/>
      <point x="90" y="619" type="line"/>
    </contour>
    <contour>
      <point x="90" y="299" type="line"/>
      <point x="130" y="299" type="line"/>
      <point x="130" y="379" type="line"/>
      <point x="90" y="379" type="line"/>
    </contour>
    <contour>
      <point x="90" y="179" type="line"/>
      <point x="130" y="179" type="line"/>
      <point x="130" y="259" type="line"/>
      <point x="90" y="259" type="line"/>
    </contour>
    <contour>
      <point x="90" y="59" type="line"/>
      <point x="130" y="59" type="line"/>
      <point x="130" y="139" type="line"/>
      <point x="90" y="139" type="line"/>
    </contour>
    <contour>
      <point x="330" y="-101" type="line"/>
      <point x="330" y="-61" type="line"/>
      <point x="250" y="-61" type="line"/>
      <point x="250" y="-101" type="line"/>
    </contour>
    <contour>
      <point x="450" y="-101" type="line"/>
      <point x="450" y="-61" type="line"/>
      <point x="370" y="-61" type="line"/>
      <point x="370" y="-101" type="line"/>
    </contour>
    <contour>
      <point x="570" y="-101" type="line"/>
      <point x="570" y="-61" type="line"/>
      <point x="490" y="-61" type="line"/>
      <point x="490" y="-101" type="line"/>
    </contour>
    <contour>
      <point x="690" y="-101" type="line"/>
      <point x="690" y="-61" type="line"/>
      <point x="610" y="-61" type="line"/>
      <point x="610" y="-101" type="line"/>
    </contour>
    <contour>
      <point x="850" y="19" type="line"/>
      <point x="810" y="19" type="line"/>
      <point x="810" y="-61" type="line"/>
      <point x="730" y="-61" type="line"/>
      <point x="730" y="-101" type="line"/>
      <point x="850" y="-101" type="line"/>
    </contour>
    <contour>
      <point x="810" y="419" type="line"/>
      <point x="850" y="419" type="line"/>
      <point x="850" y="499" type="line"/>
      <point x="810" y="499" type="line"/>
    </contour>
    <contour>
      <point x="810" y="539" type="line"/>
      <point x="850" y="539" type="line"/>
      <point x="850" y="619" type="line"/>
      <point x="810" y="619" type="line"/>
    </contour>
    <contour>
      <point x="810" y="299" type="line"/>
      <point x="850" y="299" type="line"/>
      <point x="850" y="379" type="line"/>
      <point x="810" y="379" type="line"/>
    </contour>
    <contour>
      <point x="810" y="179" type="line"/>
      <point x="850" y="179" type="line"/>
      <point x="850" y="259" type="line"/>
      <point x="810" y="259" type="line"/>
    </contour>
    <contour>
      <point x="810" y="59" type="line"/>
      <point x="850" y="59" type="line"/>
      <point x="850" y="139" type="line"/>
      <point x="810" y="139" type="line"/>
    </contour>
  </outline>
</glyph>
<glyph name="shep-beria.alt" format="2">
  <advance width="606"/>
  <note>
c
</note>
  <outline>
    <contour>
      <point x="177" y="668" type="line"/>
      <point x="177" y="609" type="line"/>
      <point x="316" y="609" type="line"/>
      <point x="316" y="473" type="line"/>
      <point x="197" y="473" type="line"/>
      <point x="197" y="414" type="line"/>
      <point x="316" y="414" type="line"/>
      <point x="316" y="303" type="line"/>
      <point x="197" y="303" type="line"/>
      <point x="197" y="244" type="line"/>
      <point x="316" y="244" type="line"/>
      <point x="316" y="126" type="line" smooth="yes"/>
      <point x="316" y="89"/>
      <point x="289" y="60"/>
      <point x="253" y="60" type="curve" smooth="yes"/>
      <point x="71" y="60" type="line"/>
      <point x="71" y="0" type="line"/>
      <point x="257" y="0" type="line" smooth="yes"/>
      <point x="330" y="0"/>
      <point x="380" y="47"/>
      <point x="380" y="122" type="curve" smooth="yes"/>
      <point x="380" y="244" type="line"/>
      <point x="499" y="244" type="line"/>
      <point x="499" y="303" type="line"/>
      <point x="380" y="303" type="line"/>
      <point x="380" y="414" type="line"/>
      <point x="499" y="414" type="line"/>
      <point x="499" y="473" type="line"/>
      <point x="380" y="473" type="line"/>
      <point x="380" y="609" type="line"/>
      <point x="519" y="609" type="line"/>
      <point x="519" y="668" type="line"/>
    </contour>
  </outline>
</glyph>
